<svg width="32" height="32" viewBox="0 0 32 32" fill="none" xmlns="http://www.w3.org/2000/svg">
<path d="M26.6663 28V25.3333C26.6663 23.9188 26.1044 22.5623 25.1042 21.5621C24.104 20.5619 22.7475 20 21.333 20H10.6663C9.25185 20 7.8953 20.5619 6.8951 21.5621C5.89491 22.5623 5.33301 23.9188 5.33301 25.3333V28" stroke="#A66460" stroke-width="2" stroke-linecap="round" stroke-linejoin="round"/>
<path d="M16.0003 14.6667C18.9458 14.6667 21.3337 12.2789 21.3337 9.33333C21.3337 6.38781 18.9458 4 16.0003 4C13.0548 4 10.667 6.38781 10.667 9.33333C10.667 12.2789 13.0548 14.6667 16.0003 14.6667Z" stroke="#A66460" stroke-width="2" stroke-linecap="round" stroke-linejoin="round"/>
<g clip-path="url(#clip0_90515_3221)">
<path d="M28.0385 11.5385C28.0385 11.2406 27.7978 11 27.5 11C27.2022 11 26.9615 11.2406 26.9615 11.5385V13.9615H24.5385C24.2406 13.9615 24 14.2022 24 14.5C24 14.7978 24.2406 15.0385 24.5385 15.0385H26.9615V17.4615C26.9615 17.7594 27.2022 18 27.5 18C27.7978 18 28.0385 17.7594 28.0385 17.4615V15.0385H30.4615C30.7594 15.0385 31 14.7978 31 14.5C31 14.2022 30.7594 13.9615 30.4615 13.9615H28.0385V11.5385Z" fill="#A66460"/>
</g>
<defs>
<clipPath id="clip0_90515_3221">
<rect width="7" height="7" fill="white" transform="translate(24 11)"/>
</clipPath>
</defs>
</svg>
