<svg width="32" height="32" viewBox="0 0 32 32" fill="none" xmlns="http://www.w3.org/2000/svg">
<path d="M7.58386 25.4867C6.61319 25.4867 5.79053 25.148 5.11586 24.4707C4.4403 23.7925 4.10253 22.9689 4.10253 22H2.25586V6.66669H22.0505V11.4867H25.1279L29.7439 17.692V22H27.5892C27.5892 22.9689 27.2496 23.7925 26.5705 24.4707C25.8914 25.148 25.0665 25.4867 24.0959 25.4867C23.1261 25.4867 22.3039 25.148 21.6292 24.4707C20.9536 23.7925 20.6159 22.9689 20.6159 22H11.0772C11.0772 22.9742 10.7376 23.7991 10.0585 24.4747C9.37853 25.1502 8.55364 25.4867 7.58386 25.4867ZM7.58919 24.1547C8.18919 24.1547 8.69853 23.9458 9.11719 23.528C9.53497 23.1094 9.74386 22.6 9.74386 22C9.74386 21.4 9.53497 20.8911 9.11719 20.4734C8.69942 20.0556 8.19008 19.8467 7.58919 19.8467C6.9883 19.8467 6.47942 20.0556 6.06253 20.4734C5.64475 20.8911 5.43586 21.4 5.43586 22C5.43586 22.6 5.64475 23.1089 6.06253 23.5267C6.4803 23.9445 6.98919 24.1547 7.58919 24.1547ZM24.1025 24.1534C24.7025 24.1534 25.2114 23.9445 25.6292 23.5267C26.047 23.1089 26.2559 22.6 26.2559 22C26.2559 21.4 26.047 20.8911 25.6292 20.4734C25.2114 20.0556 24.7025 19.8467 24.1025 19.8467C23.5025 19.8467 22.9936 20.0556 22.5759 20.4734C22.1581 20.8911 21.9492 21.4 21.9492 22C21.9492 22.6 22.1581 23.1089 22.5759 23.5267C22.9936 23.9445 23.5025 24.1534 24.1025 24.1534ZM22.0505 18H28.3332L24.4105 12.82H22.0505V18Z" fill="#423636"/>
</svg>
