<svg width="548" height="557" viewBox="0 0 548 557" fill="none" xmlns="http://www.w3.org/2000/svg">
<mask id="path-1-outside-1_90650_1294" maskUnits="userSpaceOnUse" x="41" y="23" width="468" height="520" fill="black">
<rect fill="white" x="41" y="23" width="468" height="520"/>
<path d="M73.6 537.4C64 537.4 57 535.2 52.6 530.8C48.2 526.4 46 519.4 46 509.8V121C46 115.8 46.6 111.4 47.8 107.8C49.4 104.2 51.6 101.2 54.4 98.8L131.8 33.4C133.8 31.8 136.4 30.6 139.6 29.8C143.2 28.6 147 28 151 28H342.4C384 28 414.6 36.2 434.2 52.6C453.8 68.6 463.6 93 463.6 125.8V154.6C463.6 168.6 461.6 180.6 457.6 190.6C454 200.6 448.4 208.6 440.8 214.6L439 215.8C460.6 220.6 476.8 231 487.6 247C498.4 262.6 503.8 284.4 503.8 312.4V367.6C503.8 385.6 501.2 401.2 496 414.4C490.8 427.2 483 438 472.6 446.8L395.2 512.2C385.2 520.6 372.6 526.8 357.4 530.8C342.2 535.2 324.4 537.4 304 537.4H73.6ZM381.4 466C421 466 450.2 458 469 442C488.2 426 497.8 401.2 497.8 367.6V312.4C497.8 283.2 491.6 261 479.2 245.8C466.8 230.6 447.8 221.8 422.2 219.4C434.2 214.2 443 206.4 448.6 196C454.6 185.2 457.6 171.4 457.6 154.6V125.8C457.6 94.6 448.2 71.6 429.4 56.8C410.6 41.6 381.6 34 342.4 34H151C143.4 34 137.8 35.8 134.2 39.4C131 42.6 129.4 48 129.4 55.6V444.4C129.4 452 131 457.6 134.2 461.2C137.8 464.4 143.4 466 151 466H381.4ZM357.4 412H196V88H317.8C334.2 88 347.6 89.8 358 93.4C368.4 96.6 376.4 101.2 382 107.2C387.6 112.8 391.4 119.4 393.4 127C395.4 134.6 396.4 142.8 396.4 151.6V190C396.4 202 394.2 213 389.8 223C385.8 233 375.2 240.2 358 244.6C374.4 244.6 387.8 246.4 398.2 250C408.6 253.2 416.6 258 422.2 264.4C427.8 270.4 431.4 277.6 433 286C435 294.4 436 303.6 436 313.6V352C436 360.8 435 369 433 376.6C431 383.8 427.2 390 421.6 395.2C416.4 400.4 408.6 404.6 398.2 407.8C387.8 410.6 374.2 412 357.4 412ZM317.8 94H202V244.6H317.8C334.2 244.6 347.2 243.2 356.8 240.4C366.4 237.2 373.6 233.2 378.4 228.4C383.6 223.2 386.8 217.4 388 211C389.6 204.2 390.4 197.2 390.4 190V151.6C390.4 135.6 385.8 122 376.6 110.8C367.4 99.6 347.8 94 317.8 94ZM264.4 136H315.4C323 136 328.6 138 332.2 142C336.2 146 338.2 152 338.2 160V176.8C338.2 184.8 336.2 190.8 332.2 194.8C328.6 198.8 323 200.8 315.4 200.8H264.4V136ZM358 250.6H202V406H357.4C387.4 406 407 401.2 416.2 391.6C425.4 381.6 430 368.4 430 352V313.6C430 295.6 425.4 280.6 416.2 268.6C407.4 256.6 388 250.6 358 250.6ZM264.4 293.2H342.4C350 293.2 355.6 295.2 359.2 299.2C363.2 302.8 365.2 308.6 365.2 316.6V340C365.2 348 363.2 354 359.2 358C355.6 362 350 364 342.4 364H264.4V293.2Z"/>
</mask>
<path d="M73.6 537.4C64 537.4 57 535.2 52.6 530.8C48.2 526.4 46 519.4 46 509.8V121C46 115.8 46.6 111.4 47.8 107.8C49.4 104.2 51.6 101.2 54.4 98.8L131.8 33.4C133.8 31.8 136.4 30.6 139.6 29.8C143.2 28.6 147 28 151 28H342.4C384 28 414.6 36.2 434.2 52.6C453.8 68.6 463.6 93 463.6 125.8V154.6C463.6 168.6 461.6 180.6 457.6 190.6C454 200.6 448.4 208.6 440.8 214.6L439 215.8C460.6 220.6 476.8 231 487.6 247C498.4 262.6 503.8 284.4 503.8 312.4V367.6C503.8 385.6 501.2 401.2 496 414.4C490.8 427.2 483 438 472.6 446.8L395.2 512.2C385.2 520.6 372.6 526.8 357.4 530.8C342.2 535.2 324.4 537.4 304 537.4H73.6ZM381.4 466C421 466 450.2 458 469 442C488.2 426 497.8 401.2 497.8 367.6V312.4C497.8 283.2 491.6 261 479.2 245.8C466.8 230.6 447.8 221.8 422.2 219.4C434.2 214.2 443 206.4 448.6 196C454.6 185.2 457.6 171.4 457.6 154.6V125.8C457.6 94.6 448.2 71.6 429.4 56.8C410.6 41.6 381.6 34 342.4 34H151C143.4 34 137.8 35.8 134.2 39.4C131 42.6 129.4 48 129.4 55.6V444.4C129.4 452 131 457.6 134.2 461.2C137.8 464.4 143.4 466 151 466H381.4ZM357.4 412H196V88H317.8C334.2 88 347.6 89.8 358 93.4C368.4 96.6 376.4 101.2 382 107.2C387.6 112.8 391.4 119.4 393.4 127C395.4 134.6 396.4 142.8 396.4 151.6V190C396.4 202 394.2 213 389.8 223C385.8 233 375.2 240.2 358 244.6C374.4 244.6 387.8 246.4 398.2 250C408.6 253.2 416.6 258 422.2 264.4C427.8 270.4 431.4 277.6 433 286C435 294.4 436 303.6 436 313.6V352C436 360.8 435 369 433 376.6C431 383.8 427.2 390 421.6 395.2C416.4 400.4 408.6 404.6 398.2 407.8C387.8 410.6 374.2 412 357.4 412ZM317.8 94H202V244.6H317.8C334.2 244.6 347.2 243.2 356.8 240.4C366.4 237.2 373.6 233.2 378.4 228.4C383.6 223.2 386.8 217.4 388 211C389.6 204.2 390.4 197.2 390.4 190V151.6C390.4 135.6 385.8 122 376.6 110.8C367.4 99.6 347.8 94 317.8 94ZM264.4 136H315.4C323 136 328.6 138 332.2 142C336.2 146 338.2 152 338.2 160V176.8C338.2 184.8 336.2 190.8 332.2 194.8C328.6 198.8 323 200.8 315.4 200.8H264.4V136ZM358 250.6H202V406H357.4C387.4 406 407 401.2 416.2 391.6C425.4 381.6 430 368.4 430 352V313.6C430 295.6 425.4 280.6 416.2 268.6C407.4 256.6 388 250.6 358 250.6ZM264.4 293.2H342.4C350 293.2 355.6 295.2 359.2 299.2C363.2 302.8 365.2 308.6 365.2 316.6V340C365.2 348 363.2 354 359.2 358C355.6 362 350 364 342.4 364H264.4V293.2Z" fill="#333333"/>
<path d="M47.8 107.8L43.2309 105.769L43.1329 105.99L43.0566 106.219L47.8 107.8ZM54.4 98.8L51.1729 94.9808L51.1595 94.9922L51.146 95.0037L54.4 98.8ZM131.8 33.4L128.677 29.4957L128.624 29.5375L128.573 29.5808L131.8 33.4ZM139.6 29.8L140.813 34.6507L140.999 34.6041L141.181 34.5434L139.6 29.8ZM434.2 52.6L430.991 56.4347L431.015 56.4541L431.038 56.4733L434.2 52.6ZM457.6 190.6L452.958 188.743L452.925 188.824L452.896 188.906L457.6 190.6ZM440.8 214.6L443.574 218.76L443.741 218.649L443.898 218.524L440.8 214.6ZM439 215.8L436.227 211.64L426.478 218.139L437.915 220.681L439 215.8ZM487.6 247L483.456 249.797L483.472 249.822L483.489 249.846L487.6 247ZM496 414.4L500.632 416.282L500.642 416.257L500.652 416.233L496 414.4ZM472.6 446.8L475.827 450.619L475.83 450.617L472.6 446.8ZM395.2 512.2L398.416 516.029L398.422 516.024L398.427 516.019L395.2 512.2ZM357.4 530.8L356.128 525.965L356.068 525.98L356.01 525.997L357.4 530.8ZM469 442L465.799 438.159L465.779 438.176L465.759 438.192L469 442ZM479.2 245.8L475.326 248.961V248.961L479.2 245.8ZM422.2 219.4L420.212 214.812L421.733 224.378L422.2 219.4ZM448.6 196L444.229 193.572L444.213 193.601L444.198 193.629L448.6 196ZM429.4 56.8L426.256 60.6881L426.282 60.7086L426.307 60.7287L429.4 56.8ZM134.2 39.4L130.664 35.8645L130.664 35.8645L134.2 39.4ZM134.2 461.2L130.463 464.522L130.658 464.742L130.878 464.937L134.2 461.2ZM196 412H191V417H196V412ZM196 88V83H191V88H196ZM358 93.4L356.364 98.1249L356.447 98.1533L356.53 98.1789L358 93.4ZM382 107.2L378.345 110.612L378.404 110.675L378.464 110.736L382 107.2ZM393.4 127L388.565 128.272L393.4 127ZM389.8 223L385.223 220.986L385.189 221.064L385.158 221.143L389.8 223ZM358 244.6L356.761 239.756L358 249.6V244.6ZM398.2 250L396.564 254.725L396.647 254.753L396.73 254.779L398.2 250ZM422.2 264.4L418.437 267.693L418.49 267.753L418.545 267.812L422.2 264.4ZM433 286L428.088 286.936L428.11 287.047L428.136 287.158L433 286ZM433 376.6L437.818 377.938L437.827 377.905L437.835 377.872L433 376.6ZM421.6 395.2L418.198 391.536L418.13 391.599L418.064 391.664L421.6 395.2ZM398.2 407.8L399.5 412.628L399.586 412.605L399.67 412.579L398.2 407.8ZM202 94V89H197V94H202ZM202 244.6H197V249.6H202V244.6ZM356.8 240.4L358.2 245.2L358.291 245.173L358.381 245.143L356.8 240.4ZM378.4 228.4L374.865 224.864V224.864L378.4 228.4ZM388 211L383.133 209.855L383.107 209.966L383.086 210.079L388 211ZM264.4 136V131H259.4V136H264.4ZM332.2 142L328.484 145.345L328.572 145.443L328.664 145.536L332.2 142ZM332.2 194.8L328.664 191.264L328.572 191.357L328.484 191.455L332.2 194.8ZM264.4 200.8H259.4V205.8H264.4V200.8ZM202 250.6V245.6H197V250.6H202ZM202 406H197V411H202V406ZM416.2 391.6L419.81 395.06L419.845 395.023L419.88 394.985L416.2 391.6ZM416.2 268.6L412.168 271.557L412.2 271.6L412.232 271.642L416.2 268.6ZM264.4 293.2V288.2H259.4V293.2H264.4ZM359.2 299.2L355.484 302.545L355.66 302.74L355.855 302.916L359.2 299.2ZM359.2 358L355.664 354.464L355.572 354.557L355.484 354.655L359.2 358ZM264.4 364H259.4V369H264.4V364ZM73.6 532.4C64.6228 532.4 59.1963 530.325 56.1355 527.264L49.0645 534.336C54.8037 540.075 63.3772 542.4 73.6 542.4V532.4ZM56.1355 527.264C53.0747 524.204 51 518.777 51 509.8H41C41 520.023 43.3253 528.596 49.0645 534.336L56.1355 527.264ZM51 509.8V121H41V509.8H51ZM51 121C51 116.153 51.5633 112.322 52.5434 109.381L43.0566 106.219C41.6367 110.478 41 115.447 41 121H51ZM52.3691 109.831C53.6883 106.862 55.4561 104.48 57.654 102.596L51.146 95.0037C47.7439 97.9198 45.1117 101.538 43.2309 105.769L52.3691 109.831ZM57.6271 102.619L135.027 37.2192L128.573 29.5808L51.1729 94.9808L57.6271 102.619ZM134.923 37.3043C136.225 36.2631 138.117 35.3246 140.813 34.6507L138.387 24.9493C134.683 25.8754 131.375 27.3368 128.677 29.4957L134.923 37.3043ZM141.181 34.5434C144.244 33.5224 147.508 33 151 33V23C146.492 23 142.156 23.6776 138.019 25.0565L141.181 34.5434ZM151 33H342.4V23H151V33ZM342.4 33C383.513 33 412.705 41.134 430.991 56.4347L437.409 48.7653C416.495 31.266 384.487 23 342.4 23V33ZM431.038 56.4733C449.148 71.2568 458.6 94.0214 458.6 125.8H468.6C468.6 91.9786 458.452 65.9431 437.362 48.7267L431.038 56.4733ZM458.6 125.8V154.6H468.6V125.8H458.6ZM458.6 154.6C458.6 168.145 456.662 179.482 452.958 188.743L462.242 192.457C466.538 181.718 468.6 169.055 468.6 154.6H458.6ZM452.896 188.906C449.58 198.116 444.498 205.31 437.702 210.676L443.898 218.524C452.302 211.89 458.42 203.084 462.304 192.294L452.896 188.906ZM438.026 210.44L436.227 211.64L441.774 219.96L443.574 218.76L438.026 210.44ZM437.915 220.681C458.463 225.247 473.477 235.014 483.456 249.797L491.744 244.203C480.123 226.986 462.737 215.953 440.085 210.919L437.915 220.681ZM483.489 249.846C493.495 264.299 498.8 284.958 498.8 312.4H508.8C508.8 283.842 503.305 260.901 491.711 244.154L483.489 249.846ZM498.8 312.4V367.6H508.8V312.4H498.8ZM498.8 367.6C498.8 385.134 496.265 400.085 491.348 412.567L500.652 416.233C506.135 402.315 508.8 386.066 508.8 367.6H498.8ZM491.368 412.518C486.467 424.58 479.144 434.713 469.37 442.983L475.83 450.617C486.856 441.287 495.133 429.82 500.632 416.282L491.368 412.518ZM469.373 442.981L391.973 508.381L398.427 516.019L475.827 450.619L469.373 442.981ZM391.984 508.371C382.653 516.21 370.757 522.115 356.128 525.965L358.672 535.635C374.444 531.485 387.747 524.99 398.416 516.029L391.984 508.371ZM356.01 525.997C341.37 530.235 324.058 532.4 304 532.4V542.4C324.742 542.4 343.03 540.165 358.79 535.603L356.01 525.997ZM304 532.4H73.6V542.4H304V532.4ZM381.4 471C421.513 471 452.129 462.924 472.241 445.808L465.759 438.192C448.271 453.076 420.487 461 381.4 461V471ZM472.201 445.841C492.901 428.591 502.8 402.142 502.8 367.6H492.8C492.8 400.258 483.499 423.409 465.799 438.159L472.201 445.841ZM502.8 367.6V312.4H492.8V367.6H502.8ZM502.8 312.4C502.8 282.59 496.484 259.077 483.074 242.639L475.326 248.961C486.716 262.923 492.8 283.81 492.8 312.4H502.8ZM483.074 242.639C469.588 226.108 449.168 216.906 422.667 214.422L421.733 224.378C446.432 226.694 464.012 235.092 475.326 248.961L483.074 242.639ZM424.188 223.988C437.102 218.392 446.812 209.867 453.002 198.37L444.198 193.629C439.188 202.933 431.298 210.008 420.212 214.812L424.188 223.988ZM452.971 198.428C459.505 186.666 462.6 171.957 462.6 154.6H452.6C452.6 170.843 449.695 183.734 444.229 193.572L452.971 198.428ZM462.6 154.6V125.8H452.6V154.6H462.6ZM462.6 125.8C462.6 93.5722 452.845 68.893 432.493 52.8713L426.307 60.7287C443.555 74.3069 452.6 95.6277 452.6 125.8H462.6ZM432.544 52.9118C412.449 36.6649 382.083 29 342.4 29V39C381.117 39 408.751 46.535 426.256 60.6881L432.544 52.9118ZM342.4 29H151V39H342.4V29ZM151 29C142.721 29 135.577 30.9514 130.664 35.8645L137.736 42.9355C140.023 40.6485 144.079 39 151 39V29ZM130.664 35.8645C126.061 40.4677 124.4 47.5229 124.4 55.6H134.4C134.4 48.4771 135.939 44.7323 137.736 42.9355L130.664 35.8645ZM124.4 55.6V444.4H134.4V55.6H124.4ZM124.4 444.4C124.4 452.551 126.092 459.605 130.463 464.522L137.937 457.878C135.908 455.595 134.4 451.449 134.4 444.4H124.4ZM130.878 464.937C135.795 469.308 142.849 471 151 471V461C143.951 461 139.805 459.492 137.522 457.463L130.878 464.937ZM151 471H381.4V461H151V471ZM357.4 407H196V417H357.4V407ZM201 412V88H191V412H201ZM196 93H317.8V83H196V93ZM317.8 93C333.889 93 346.681 94.773 356.364 98.1249L359.636 88.675C348.519 84.827 334.511 83 317.8 83V93ZM356.53 98.1789C366.358 101.203 373.504 105.426 378.345 110.612L385.655 103.788C379.296 96.9743 370.442 91.997 359.47 88.6211L356.53 98.1789ZM378.464 110.736C383.444 115.715 386.792 121.536 388.565 128.272L398.235 125.728C396.008 117.264 391.756 109.885 385.536 103.664L378.464 110.736ZM388.565 128.272C390.443 135.411 391.4 143.179 391.4 151.6H401.4C401.4 142.421 400.357 133.789 398.235 125.728L388.565 128.272ZM391.4 151.6V190H401.4V151.6H391.4ZM391.4 190C391.4 201.375 389.318 211.681 385.223 220.986L394.377 225.014C399.082 214.319 401.4 202.625 401.4 190H391.4ZM385.158 221.143C382.051 228.909 373.418 235.495 356.761 239.756L359.239 249.444C376.982 244.905 389.549 237.091 394.442 224.857L385.158 221.143ZM358 249.6C374.089 249.6 386.881 251.373 396.564 254.725L399.836 245.275C388.719 241.427 374.711 239.6 358 239.6V249.6ZM396.73 254.779C406.487 257.781 413.598 262.162 418.437 267.693L425.963 261.107C419.602 253.838 410.713 248.619 399.67 245.221L396.73 254.779ZM418.545 267.812C423.473 273.092 426.657 279.422 428.088 286.936L437.912 285.064C436.143 275.778 432.127 267.708 425.855 260.988L418.545 267.812ZM428.136 287.158C430.033 295.125 431 303.93 431 313.6H441C441 303.27 439.967 293.675 437.864 284.842L428.136 287.158ZM431 313.6V352H441V313.6H431ZM431 352C431 360.421 430.043 368.189 428.165 375.328L437.835 377.872C439.957 369.811 441 361.179 441 352H431ZM428.182 375.262C426.436 381.549 423.136 386.95 418.198 391.536L425.002 398.864C431.264 393.05 435.564 386.051 437.818 377.938L428.182 375.262ZM418.064 391.664C413.652 396.077 406.696 399.955 396.73 403.021L399.67 412.579C410.504 409.245 419.148 404.723 425.136 398.736L418.064 391.664ZM396.9 402.972C387.091 405.613 373.977 407 357.4 407V417C374.423 417 388.509 415.587 399.5 412.628L396.9 402.972ZM317.8 89H202V99H317.8V89ZM197 94V244.6H207V94H197ZM202 249.6H317.8V239.6H202V249.6ZM317.8 249.6C334.412 249.6 347.949 248.19 358.2 245.2L355.4 235.6C346.452 238.21 333.988 239.6 317.8 239.6V249.6ZM358.381 245.143C368.386 241.808 376.384 237.487 381.936 231.936L374.865 224.864C370.816 228.913 364.414 232.591 355.219 235.657L358.381 245.143ZM381.936 231.936C387.753 226.119 391.505 219.437 392.914 211.921L383.086 210.079C382.095 215.363 379.448 220.281 374.865 224.864L381.936 231.936ZM392.867 212.145C394.558 204.958 395.4 197.574 395.4 190H385.4C385.4 196.826 384.642 203.441 383.133 209.855L392.867 212.145ZM395.4 190V151.6H385.4V190H395.4ZM395.4 151.6C395.4 134.571 390.476 119.815 380.464 107.626L372.736 113.974C381.124 124.185 385.4 136.629 385.4 151.6H395.4ZM380.464 107.626C375.005 100.981 366.767 96.362 356.374 93.3924C345.97 90.42 333.068 89 317.8 89V99C332.532 99 344.43 100.38 353.626 103.008C362.833 105.638 368.995 109.419 372.736 113.974L380.464 107.626ZM264.4 141H315.4V131H264.4V141ZM315.4 141C322.184 141 326.171 142.775 328.484 145.345L335.916 138.655C331.029 133.225 323.816 131 315.4 131V141ZM328.664 145.536C331.396 148.267 333.2 152.771 333.2 160H343.2C343.2 151.229 341.004 143.733 335.736 138.464L328.664 145.536ZM333.2 160V176.8H343.2V160H333.2ZM333.2 176.8C333.2 184.029 331.396 188.533 328.664 191.264L335.736 198.336C341.004 193.067 343.2 185.571 343.2 176.8H333.2ZM328.484 191.455C326.171 194.025 322.184 195.8 315.4 195.8V205.8C323.816 205.8 331.029 203.575 335.916 198.145L328.484 191.455ZM315.4 195.8H264.4V205.8H315.4V195.8ZM269.4 200.8V136H259.4V200.8H269.4ZM358 245.6H202V255.6H358V245.6ZM197 250.6V406H207V250.6H197ZM202 411H357.4V401H202V411ZM357.4 411C372.627 411 385.461 409.786 395.789 407.257C406.068 404.739 414.295 400.815 419.81 395.06L412.59 388.14C408.905 391.985 402.732 395.261 393.411 397.544C384.139 399.814 372.173 401 357.4 401V411ZM419.88 394.985C430.098 383.879 435 369.38 435 352H425C425 367.42 420.703 379.321 412.52 388.215L419.88 394.985ZM435 352V313.6H425V352H435ZM435 313.6C435 294.717 430.158 278.588 420.168 265.558L412.232 271.642C420.642 282.612 425 296.483 425 313.6H435ZM420.232 265.643C415.003 258.512 406.885 253.526 396.527 250.323C386.179 247.123 373.286 245.6 358 245.6V255.6C372.714 255.6 384.521 257.077 393.573 259.877C402.615 262.673 408.597 266.688 412.168 271.557L420.232 265.643ZM264.4 298.2H342.4V288.2H264.4V298.2ZM342.4 298.2C349.184 298.2 353.171 299.975 355.484 302.545L362.916 295.855C358.029 290.425 350.816 288.2 342.4 288.2V298.2ZM355.855 302.916C358.377 305.186 360.2 309.322 360.2 316.6H370.2C370.2 307.878 368.023 300.414 362.545 295.484L355.855 302.916ZM360.2 316.6V340H370.2V316.6H360.2ZM360.2 340C360.2 347.229 358.396 351.733 355.664 354.464L362.736 361.536C368.004 356.267 370.2 348.771 370.2 340H360.2ZM355.484 354.655C353.171 357.225 349.184 359 342.4 359V369C350.816 369 358.029 366.775 362.917 361.345L355.484 354.655ZM342.4 359H264.4V369H342.4V359ZM269.4 364V293.2H259.4V364H269.4Z" fill="#333333" mask="url(#path-1-outside-1_90650_1294)"/>
</svg>
