<svg width="1982" height="550" viewBox="0 0 1982 550" fill="none" xmlns="http://www.w3.org/2000/svg">
<mask id="path-1-outside-1_90650_1293" maskUnits="userSpaceOnUse" x="25" y="60" width="1924" height="435" fill="black">
<rect fill="white" x="25" y="60" width="1924" height="435"/>
<path d="M53.5 489.5C45.5 489.5 39.6667 487.667 36 484C32.3333 480.333 30.5 474.5 30.5 466.5V142.5C30.5 138.167 31 134.5 32 131.5C33.3333 128.5 35.1667 126 37.5 124L102 69.5C103.667 68.1667 105.833 67.1666 108.5 66.5C111.5 65.5 114.667 65 118 65H277.5C312.167 65 337.667 71.8333 354 85.5C370.333 98.8333 378.5 119.167 378.5 146.5V170.5C378.5 182.167 376.833 192.167 373.5 200.5C370.5 208.833 365.833 215.5 359.5 220.5L358 221.5C376 225.5 389.5 234.167 398.5 247.5C407.5 260.5 412 278.667 412 302V348C412 363 409.833 376 405.5 387C401.167 397.667 394.667 406.667 386 414L321.5 468.5C313.167 475.5 302.667 480.667 290 484C277.333 487.667 262.5 489.5 245.5 489.5H53.5ZM310 430C343 430 367.333 423.333 383 410C399 396.667 407 376 407 348V302C407 277.667 401.833 259.167 391.5 246.5C381.167 233.833 365.333 226.5 344 224.5C354 220.167 361.333 213.667 366 205C371 196 373.5 184.5 373.5 170.5V146.5C373.5 120.5 365.667 101.333 350 89C334.333 76.3333 310.167 70 277.5 70H118C111.667 70 107 71.5 104 74.5C101.333 77.1667 100 81.6667 100 88V412C100 418.333 101.333 423 104 426C107 428.667 111.667 430 118 430H310ZM290 385H155.5V115H257C270.667 115 281.833 116.5 290.5 119.5C299.167 122.167 305.833 126 310.5 131C315.167 135.667 318.333 141.167 320 147.5C321.667 153.833 322.5 160.667 322.5 168V200C322.5 210 320.667 219.167 317 227.5C313.667 235.833 304.833 241.833 290.5 245.5C304.167 245.5 315.333 247 324 250C332.667 252.667 339.333 256.667 344 262C348.667 267 351.667 273 353 280C354.667 287 355.5 294.667 355.5 303V335C355.5 342.333 354.667 349.167 353 355.5C351.333 361.5 348.167 366.667 343.5 371C339.167 375.333 332.667 378.833 324 381.5C315.333 383.833 304 385 290 385ZM257 120H160.5V245.5H257C270.667 245.5 281.5 244.333 289.5 242C297.5 239.333 303.5 236 307.5 232C311.833 227.667 314.5 222.833 315.5 217.5C316.833 211.833 317.5 206 317.5 200V168C317.5 154.667 313.667 143.333 306 134C298.333 124.667 282 120 257 120ZM212.5 155H255C261.333 155 266 156.667 269 160C272.333 163.333 274 168.333 274 175V189C274 195.667 272.333 200.667 269 204C266 207.333 261.333 209 255 209H212.5V155ZM290.5 250.5H160.5V380H290C315 380 331.333 376 339 368C346.667 359.667 350.5 348.667 350.5 335V303C350.5 288 346.667 275.5 339 265.5C331.667 255.5 315.5 250.5 290.5 250.5ZM212.5 286H277.5C283.833 286 288.5 287.667 291.5 291C294.833 294 296.5 298.833 296.5 305.5V325C296.5 331.667 294.833 336.667 291.5 340C288.5 343.333 283.833 345 277.5 345H212.5V286ZM675.598 120H566.598V264.5H675.598C696.264 264.5 710.098 259.5 717.098 249.5C724.098 239.5 727.598 225.333 727.598 207V172C727.598 156.667 723.264 144.167 714.598 134.5C706.264 124.833 693.264 120 675.598 120ZM620.598 160H658.098C666.764 160 672.598 162.333 675.598 167C678.598 171.333 680.098 176.833 680.098 183.5V200.5C680.098 207.167 678.598 212.833 675.598 217.5C672.598 221.833 666.764 224 658.098 224H620.598V160ZM566.598 385H561.598V115H675.598C694.931 115 709.264 120.5 718.598 131.5C727.931 142.167 732.598 155.667 732.598 172V206.5C732.598 221.833 730.598 234.5 726.598 244.5C722.598 254.167 714.598 260.833 702.598 264.5H708.098C728.431 264.5 743.598 269.167 753.598 278.5C763.598 287.5 768.598 300.667 768.598 318V385H763.598V318C763.598 301.667 759.098 289.5 750.098 281.5C741.098 273.167 727.098 269 708.098 269H566.598V385ZM602.598 430C608.931 430 613.431 428.667 616.098 426C619.098 423 620.598 418.333 620.598 412V314H690.598C697.598 314 702.431 315.833 705.098 319.5C708.098 322.833 709.598 328.167 709.598 335.5V412C709.598 418.333 710.931 423 713.598 426C716.598 428.667 721.264 430 727.598 430H805.098C811.431 430 815.931 428.667 818.598 426C821.598 423 823.098 418.333 823.098 412V306C823.098 285 817.431 268.167 806.098 255.5C795.098 242.833 780.598 235.5 762.598 233.5C772.931 229.167 780.098 222.167 784.098 212.5C788.431 202.5 790.598 190.5 790.598 176.5V153.5C790.598 128.833 783.431 108.833 769.098 93.5C755.098 77.8333 729.431 70 692.098 70H525.598C519.264 70 514.598 71.5 511.598 74.5C508.931 77.1667 507.598 81.6667 507.598 88V412C507.598 418.333 508.931 423 511.598 426C514.598 428.667 519.264 430 525.598 430H602.598ZM618.598 430.5L553.598 484.5C552.264 485.833 550.098 487 547.098 488C544.431 489 541.431 489.5 538.098 489.5H461.098C453.098 489.5 447.264 487.667 443.598 484C439.931 480.333 438.098 474.5 438.098 466.5V142.5C438.098 138.167 438.598 134.5 439.598 131.5C440.931 128.5 442.764 126 445.098 124L509.598 69.5C511.264 68.1667 513.431 67.1666 516.098 66.5C519.098 65.5 522.264 65 525.598 65H692.098C731.764 65 758.931 73.3333 773.598 90C788.264 106.333 795.598 127.5 795.598 153.5V176.5C795.598 188.833 794.098 199.667 791.098 209C788.098 218 783.264 225.333 776.598 231H776.098C791.764 235.333 804.264 244 813.598 257C823.264 270 828.098 286.333 828.098 306V412C828.098 416.333 827.431 420 826.098 423C825.098 426 823.431 428.5 821.098 430.5L756.098 484.5C754.764 485.833 752.598 487 749.598 488C746.931 489 743.931 489.5 740.598 489.5H663.098C655.098 489.5 649.264 487.667 645.598 484C641.931 480.333 640.098 474.5 640.098 466.5V390C640.098 384.667 639.098 380.667 637.098 378C635.098 375 631.431 373.5 626.098 373.5H625.598V412C625.598 416.333 624.931 420 623.598 423C622.598 426 620.931 428.5 618.598 430.5ZM1082.48 489.5H869.484C861.484 489.5 855.651 487.667 851.984 484C848.318 480.333 846.484 474.5 846.484 466.5V407C846.484 402.667 846.984 399 847.984 396C849.318 393 851.151 390.5 853.484 388.5L913.984 337.5V226H869.484C861.484 226 855.651 224.167 851.984 220.5C848.318 216.833 846.484 211 846.484 203V142.5C846.484 138.167 846.984 134.5 847.984 131.5C849.318 128.5 851.151 126 853.484 124L917.984 69.5C919.651 68.1667 921.818 67.1666 924.484 66.5C927.484 65.5 930.651 65 933.984 65H1146.98C1154.98 65 1160.82 66.8333 1164.48 70.5C1168.15 74.1667 1169.98 80 1169.98 88V148.5C1169.98 152.833 1169.32 156.5 1167.98 159.5C1166.98 162.5 1165.32 165 1162.98 167L1103.48 217V329.5H1146.98C1154.98 329.5 1160.82 331.333 1164.48 335C1168.15 338.667 1169.98 344.5 1169.98 352.5V412C1169.98 416.333 1169.32 420 1167.98 423C1166.98 426 1165.32 428.5 1162.98 430.5L1097.98 484.5C1096.65 485.833 1094.48 487 1091.48 488C1088.82 489 1085.82 489.5 1082.48 489.5ZM933.984 430H1146.98C1153.32 430 1157.82 428.667 1160.48 426C1163.48 423 1164.98 418.333 1164.98 412V352.5C1164.98 346.167 1163.48 341.667 1160.48 339C1157.82 336 1153.32 334.5 1146.98 334.5H1098.48V166.5H1146.98C1153.32 166.5 1157.82 165.167 1160.48 162.5C1163.48 159.5 1164.98 154.833 1164.98 148.5V88C1164.98 81.6667 1163.48 77.1667 1160.48 74.5C1157.82 71.5 1153.32 70 1146.98 70H933.984C927.651 70 922.984 71.5 919.984 74.5C917.318 77.1667 915.984 81.6667 915.984 88V148.5C915.984 154.833 917.318 159.5 919.984 162.5C922.984 165.167 927.651 166.5 933.984 166.5H983.484V334.5H933.984C927.651 334.5 922.984 336 919.984 339C917.318 341.667 915.984 346.167 915.984 352.5V412C915.984 418.333 917.318 423 919.984 426C922.984 428.667 927.651 430 933.984 430ZM1119.98 385H960.984V380H1038.48V120H960.984V115H1119.98V120H1043.48V380H1119.98V385ZM1446.52 489.5H1324.52C1280.86 489.5 1248.52 478.167 1227.52 455.5C1206.86 432.833 1196.52 403.5 1196.52 367.5V227C1196.52 208.667 1199.19 192.833 1204.52 179.5C1209.86 165.833 1217.69 154.5 1228.02 145.5L1293.02 91C1303.36 82.3333 1316.52 75.8333 1332.52 71.5C1348.52 67.1667 1367.36 65 1389.02 65H1511.02C1519.02 65 1524.86 66.8333 1528.52 70.5C1532.19 74.1667 1534.02 80 1534.02 88V148.5C1534.02 152.833 1533.36 156.5 1532.02 159.5C1531.02 162.5 1529.36 165 1527.02 167L1462.02 221C1460.69 222.333 1458.52 223.5 1455.52 224.5C1452.86 225.5 1449.86 226 1446.52 226H1385.02V310.5C1385.02 317.5 1387.19 322.5 1391.52 325.5C1395.86 328.167 1402.19 329.5 1410.52 329.5H1511.02C1519.02 329.5 1524.86 331.333 1528.52 335C1532.19 338.667 1534.02 344.5 1534.02 352.5V412C1534.02 416.333 1533.36 420 1532.02 423C1531.02 426 1529.36 428.5 1527.02 430.5L1462.02 484.5C1460.69 485.833 1458.52 487 1455.52 488C1452.86 489 1449.86 489.5 1446.52 489.5ZM1511.02 430C1517.36 430 1521.86 428.667 1524.52 426C1527.52 423 1529.02 418.333 1529.02 412V352.5C1529.02 346.167 1527.52 341.667 1524.52 339C1521.86 336 1517.36 334.5 1511.02 334.5H1410.52C1400.19 334.5 1392.52 332.667 1387.52 329C1382.52 325 1380.02 318.833 1380.02 310.5V191.5C1380.02 183.167 1382.52 177 1387.52 173C1392.52 168.667 1400.19 166.5 1410.52 166.5H1511.02C1517.36 166.5 1521.86 165.167 1524.52 162.5C1527.52 159.5 1529.02 154.833 1529.02 148.5V88C1529.02 81.6667 1527.52 77.1667 1524.52 74.5C1521.86 71.5 1517.36 70 1511.02 70H1389.02C1347.36 70 1316.36 78.5 1296.02 95.5C1276.02 112.167 1266.02 137.833 1266.02 172.5V328C1266.02 362.667 1276.02 388.333 1296.02 405C1316.36 421.667 1347.36 430 1389.02 430H1511.02ZM1483.52 380V385H1400.02C1367.69 385 1346.19 380 1335.52 370C1325.19 360 1320.02 343.5 1320.02 320.5V180.5C1320.02 156.833 1325.36 140 1336.02 130C1346.69 120 1368.02 115 1400.02 115H1483.52V120H1400.02C1370.69 120 1350.86 124.667 1340.52 134C1330.19 143 1325.02 158.5 1325.02 180.5V320.5C1325.02 342.167 1330.02 357.5 1340.02 366.5C1350.02 375.5 1370.02 380 1400.02 380H1483.52ZM1689.79 385H1684.79V115H1689.79V248H1798.29L1855.79 115H1861.29L1803.79 248H1824.29C1844.63 248 1859.79 251.833 1869.79 259.5C1879.79 267.167 1884.79 279.667 1884.79 297V385H1879.79V297C1879.79 281 1875.13 269.667 1865.79 263C1856.46 256.333 1842.63 253 1824.29 253H1689.79V385ZM1725.79 430C1732.13 430 1736.63 428.667 1739.29 426C1742.29 423 1743.79 418.333 1743.79 412V297.5H1809.79C1815.13 297.5 1819.13 299 1821.79 302C1824.46 305 1825.79 309.167 1825.79 314.5V412C1825.79 418.333 1827.13 423 1829.79 426C1832.79 428.667 1837.46 430 1843.79 430H1920.79C1927.13 430 1931.63 428.667 1934.29 426C1937.29 423 1938.79 418.333 1938.79 412V271C1938.79 251 1933.13 235 1921.79 223C1910.79 210.667 1895.96 204 1877.29 203L1928.29 86.5C1930.63 81.1667 1930.79 77.1667 1928.79 74.5C1926.79 71.5 1922.96 70 1917.29 70H1840.29C1833.96 70 1828.79 71.3333 1824.79 74C1820.79 76.3333 1817.63 80.5 1815.29 86.5L1763.79 203H1743.79V88C1743.79 81.6667 1742.29 77.1667 1739.29 74.5C1736.63 71.5 1732.13 70 1725.79 70H1648.29C1641.96 70 1637.29 71.5 1634.29 74.5C1631.63 77.1667 1630.29 81.6667 1630.29 88V412C1630.29 418.333 1631.63 423 1634.29 426C1637.29 428.667 1641.96 430 1648.29 430H1725.79ZM1741.79 430.5L1676.79 484.5C1675.46 485.833 1673.29 487 1670.29 488C1667.63 489 1664.63 489.5 1661.29 489.5H1583.79C1575.79 489.5 1569.96 487.667 1566.29 484C1562.63 480.333 1560.79 474.5 1560.79 466.5V142.5C1560.79 138.167 1561.29 134.5 1562.29 131.5C1563.63 128.5 1565.46 126 1567.79 124L1632.29 69.5C1633.96 68.1667 1636.13 67.1666 1638.79 66.5C1641.79 65.5 1644.96 65 1648.29 65H1725.79C1733.79 65 1739.63 66.8333 1743.29 70.5C1746.96 74.1667 1748.79 80 1748.79 88V133.5C1749.79 132.167 1750.79 130.833 1751.79 129.5C1752.79 127.833 1753.96 126.5 1755.29 125.5L1819.79 71C1822.13 69 1824.96 67.5 1828.29 66.5C1831.96 65.5 1835.96 65 1840.29 65H1917.29C1925.63 65 1931.13 67.1667 1933.79 71.5C1936.46 75.5 1936.13 81.1666 1932.79 88.5L1884.79 198.5C1902.79 200.833 1917.13 208.5 1927.79 221.5C1938.46 234.5 1943.79 251 1943.79 271V412C1943.79 416.333 1943.13 420 1941.79 423C1940.79 426 1939.13 428.5 1936.79 430.5L1871.79 484.5C1870.46 485.833 1868.29 487 1865.29 488C1862.63 489 1859.63 489.5 1856.29 489.5H1779.29C1771.29 489.5 1765.46 487.667 1761.79 484C1758.13 480.333 1756.29 474.5 1756.29 466.5V369C1756.29 365.667 1755.63 363 1754.29 361C1752.96 359 1751.13 357.833 1748.79 357.5V412C1748.79 416.333 1748.13 420 1746.79 423C1745.79 426 1744.13 428.5 1741.79 430.5Z"/>
</mask>
<path d="M53.5 489.5C45.5 489.5 39.6667 487.667 36 484C32.3333 480.333 30.5 474.5 30.5 466.5V142.5C30.5 138.167 31 134.5 32 131.5C33.3333 128.5 35.1667 126 37.5 124L102 69.5C103.667 68.1667 105.833 67.1666 108.5 66.5C111.5 65.5 114.667 65 118 65H277.5C312.167 65 337.667 71.8333 354 85.5C370.333 98.8333 378.5 119.167 378.5 146.5V170.5C378.5 182.167 376.833 192.167 373.5 200.5C370.5 208.833 365.833 215.5 359.5 220.5L358 221.5C376 225.5 389.5 234.167 398.5 247.5C407.5 260.5 412 278.667 412 302V348C412 363 409.833 376 405.5 387C401.167 397.667 394.667 406.667 386 414L321.5 468.5C313.167 475.5 302.667 480.667 290 484C277.333 487.667 262.5 489.5 245.5 489.5H53.5ZM310 430C343 430 367.333 423.333 383 410C399 396.667 407 376 407 348V302C407 277.667 401.833 259.167 391.5 246.5C381.167 233.833 365.333 226.5 344 224.5C354 220.167 361.333 213.667 366 205C371 196 373.5 184.5 373.5 170.5V146.5C373.5 120.5 365.667 101.333 350 89C334.333 76.3333 310.167 70 277.5 70H118C111.667 70 107 71.5 104 74.5C101.333 77.1667 100 81.6667 100 88V412C100 418.333 101.333 423 104 426C107 428.667 111.667 430 118 430H310ZM290 385H155.5V115H257C270.667 115 281.833 116.5 290.5 119.5C299.167 122.167 305.833 126 310.5 131C315.167 135.667 318.333 141.167 320 147.5C321.667 153.833 322.5 160.667 322.5 168V200C322.5 210 320.667 219.167 317 227.5C313.667 235.833 304.833 241.833 290.5 245.5C304.167 245.5 315.333 247 324 250C332.667 252.667 339.333 256.667 344 262C348.667 267 351.667 273 353 280C354.667 287 355.5 294.667 355.5 303V335C355.5 342.333 354.667 349.167 353 355.5C351.333 361.5 348.167 366.667 343.5 371C339.167 375.333 332.667 378.833 324 381.5C315.333 383.833 304 385 290 385ZM257 120H160.5V245.5H257C270.667 245.5 281.5 244.333 289.5 242C297.5 239.333 303.5 236 307.5 232C311.833 227.667 314.5 222.833 315.5 217.5C316.833 211.833 317.5 206 317.5 200V168C317.5 154.667 313.667 143.333 306 134C298.333 124.667 282 120 257 120ZM212.5 155H255C261.333 155 266 156.667 269 160C272.333 163.333 274 168.333 274 175V189C274 195.667 272.333 200.667 269 204C266 207.333 261.333 209 255 209H212.5V155ZM290.5 250.5H160.5V380H290C315 380 331.333 376 339 368C346.667 359.667 350.5 348.667 350.5 335V303C350.5 288 346.667 275.5 339 265.5C331.667 255.5 315.5 250.5 290.5 250.5ZM212.5 286H277.5C283.833 286 288.5 287.667 291.5 291C294.833 294 296.5 298.833 296.5 305.5V325C296.5 331.667 294.833 336.667 291.5 340C288.5 343.333 283.833 345 277.5 345H212.5V286ZM675.598 120H566.598V264.5H675.598C696.264 264.5 710.098 259.5 717.098 249.5C724.098 239.5 727.598 225.333 727.598 207V172C727.598 156.667 723.264 144.167 714.598 134.5C706.264 124.833 693.264 120 675.598 120ZM620.598 160H658.098C666.764 160 672.598 162.333 675.598 167C678.598 171.333 680.098 176.833 680.098 183.5V200.5C680.098 207.167 678.598 212.833 675.598 217.5C672.598 221.833 666.764 224 658.098 224H620.598V160ZM566.598 385H561.598V115H675.598C694.931 115 709.264 120.5 718.598 131.5C727.931 142.167 732.598 155.667 732.598 172V206.5C732.598 221.833 730.598 234.5 726.598 244.5C722.598 254.167 714.598 260.833 702.598 264.5H708.098C728.431 264.5 743.598 269.167 753.598 278.5C763.598 287.5 768.598 300.667 768.598 318V385H763.598V318C763.598 301.667 759.098 289.5 750.098 281.5C741.098 273.167 727.098 269 708.098 269H566.598V385ZM602.598 430C608.931 430 613.431 428.667 616.098 426C619.098 423 620.598 418.333 620.598 412V314H690.598C697.598 314 702.431 315.833 705.098 319.5C708.098 322.833 709.598 328.167 709.598 335.5V412C709.598 418.333 710.931 423 713.598 426C716.598 428.667 721.264 430 727.598 430H805.098C811.431 430 815.931 428.667 818.598 426C821.598 423 823.098 418.333 823.098 412V306C823.098 285 817.431 268.167 806.098 255.5C795.098 242.833 780.598 235.5 762.598 233.5C772.931 229.167 780.098 222.167 784.098 212.5C788.431 202.5 790.598 190.5 790.598 176.5V153.5C790.598 128.833 783.431 108.833 769.098 93.5C755.098 77.8333 729.431 70 692.098 70H525.598C519.264 70 514.598 71.5 511.598 74.5C508.931 77.1667 507.598 81.6667 507.598 88V412C507.598 418.333 508.931 423 511.598 426C514.598 428.667 519.264 430 525.598 430H602.598ZM618.598 430.5L553.598 484.5C552.264 485.833 550.098 487 547.098 488C544.431 489 541.431 489.5 538.098 489.5H461.098C453.098 489.5 447.264 487.667 443.598 484C439.931 480.333 438.098 474.5 438.098 466.5V142.5C438.098 138.167 438.598 134.5 439.598 131.5C440.931 128.5 442.764 126 445.098 124L509.598 69.5C511.264 68.1667 513.431 67.1666 516.098 66.5C519.098 65.5 522.264 65 525.598 65H692.098C731.764 65 758.931 73.3333 773.598 90C788.264 106.333 795.598 127.5 795.598 153.5V176.5C795.598 188.833 794.098 199.667 791.098 209C788.098 218 783.264 225.333 776.598 231H776.098C791.764 235.333 804.264 244 813.598 257C823.264 270 828.098 286.333 828.098 306V412C828.098 416.333 827.431 420 826.098 423C825.098 426 823.431 428.5 821.098 430.5L756.098 484.5C754.764 485.833 752.598 487 749.598 488C746.931 489 743.931 489.5 740.598 489.5H663.098C655.098 489.5 649.264 487.667 645.598 484C641.931 480.333 640.098 474.5 640.098 466.5V390C640.098 384.667 639.098 380.667 637.098 378C635.098 375 631.431 373.5 626.098 373.5H625.598V412C625.598 416.333 624.931 420 623.598 423C622.598 426 620.931 428.5 618.598 430.5ZM1082.48 489.5H869.484C861.484 489.5 855.651 487.667 851.984 484C848.318 480.333 846.484 474.5 846.484 466.5V407C846.484 402.667 846.984 399 847.984 396C849.318 393 851.151 390.5 853.484 388.5L913.984 337.5V226H869.484C861.484 226 855.651 224.167 851.984 220.5C848.318 216.833 846.484 211 846.484 203V142.5C846.484 138.167 846.984 134.5 847.984 131.5C849.318 128.5 851.151 126 853.484 124L917.984 69.5C919.651 68.1667 921.818 67.1666 924.484 66.5C927.484 65.5 930.651 65 933.984 65H1146.98C1154.98 65 1160.82 66.8333 1164.48 70.5C1168.15 74.1667 1169.98 80 1169.98 88V148.5C1169.98 152.833 1169.32 156.5 1167.98 159.5C1166.98 162.5 1165.32 165 1162.98 167L1103.48 217V329.5H1146.98C1154.98 329.5 1160.82 331.333 1164.48 335C1168.15 338.667 1169.98 344.5 1169.98 352.5V412C1169.98 416.333 1169.32 420 1167.98 423C1166.98 426 1165.32 428.5 1162.98 430.5L1097.98 484.5C1096.65 485.833 1094.48 487 1091.48 488C1088.82 489 1085.82 489.5 1082.48 489.5ZM933.984 430H1146.98C1153.32 430 1157.82 428.667 1160.48 426C1163.48 423 1164.98 418.333 1164.98 412V352.5C1164.98 346.167 1163.48 341.667 1160.48 339C1157.82 336 1153.32 334.5 1146.98 334.5H1098.48V166.5H1146.98C1153.32 166.5 1157.82 165.167 1160.48 162.5C1163.48 159.5 1164.98 154.833 1164.98 148.5V88C1164.98 81.6667 1163.48 77.1667 1160.48 74.5C1157.82 71.5 1153.32 70 1146.98 70H933.984C927.651 70 922.984 71.5 919.984 74.5C917.318 77.1667 915.984 81.6667 915.984 88V148.5C915.984 154.833 917.318 159.5 919.984 162.5C922.984 165.167 927.651 166.5 933.984 166.5H983.484V334.5H933.984C927.651 334.5 922.984 336 919.984 339C917.318 341.667 915.984 346.167 915.984 352.5V412C915.984 418.333 917.318 423 919.984 426C922.984 428.667 927.651 430 933.984 430ZM1119.98 385H960.984V380H1038.48V120H960.984V115H1119.98V120H1043.48V380H1119.98V385ZM1446.52 489.5H1324.52C1280.86 489.5 1248.52 478.167 1227.52 455.5C1206.86 432.833 1196.52 403.5 1196.52 367.5V227C1196.52 208.667 1199.19 192.833 1204.52 179.5C1209.86 165.833 1217.69 154.5 1228.02 145.5L1293.02 91C1303.36 82.3333 1316.52 75.8333 1332.52 71.5C1348.52 67.1667 1367.36 65 1389.02 65H1511.02C1519.02 65 1524.86 66.8333 1528.52 70.5C1532.19 74.1667 1534.02 80 1534.02 88V148.5C1534.02 152.833 1533.36 156.5 1532.02 159.5C1531.02 162.5 1529.36 165 1527.02 167L1462.02 221C1460.69 222.333 1458.52 223.5 1455.52 224.5C1452.86 225.5 1449.86 226 1446.52 226H1385.02V310.5C1385.02 317.5 1387.19 322.5 1391.52 325.5C1395.86 328.167 1402.19 329.5 1410.52 329.5H1511.02C1519.02 329.5 1524.86 331.333 1528.52 335C1532.19 338.667 1534.02 344.5 1534.02 352.5V412C1534.02 416.333 1533.36 420 1532.02 423C1531.02 426 1529.36 428.5 1527.02 430.5L1462.02 484.5C1460.69 485.833 1458.52 487 1455.52 488C1452.86 489 1449.86 489.5 1446.52 489.5ZM1511.02 430C1517.36 430 1521.86 428.667 1524.52 426C1527.52 423 1529.02 418.333 1529.02 412V352.5C1529.02 346.167 1527.52 341.667 1524.52 339C1521.86 336 1517.36 334.5 1511.02 334.5H1410.52C1400.19 334.5 1392.52 332.667 1387.52 329C1382.52 325 1380.02 318.833 1380.02 310.5V191.5C1380.02 183.167 1382.52 177 1387.52 173C1392.52 168.667 1400.19 166.5 1410.52 166.5H1511.02C1517.36 166.5 1521.86 165.167 1524.52 162.5C1527.52 159.5 1529.02 154.833 1529.02 148.5V88C1529.02 81.6667 1527.52 77.1667 1524.52 74.5C1521.86 71.5 1517.36 70 1511.02 70H1389.02C1347.36 70 1316.36 78.5 1296.02 95.5C1276.02 112.167 1266.02 137.833 1266.02 172.5V328C1266.02 362.667 1276.02 388.333 1296.02 405C1316.36 421.667 1347.36 430 1389.02 430H1511.02ZM1483.52 380V385H1400.02C1367.69 385 1346.19 380 1335.52 370C1325.19 360 1320.02 343.5 1320.02 320.5V180.5C1320.02 156.833 1325.36 140 1336.02 130C1346.69 120 1368.02 115 1400.02 115H1483.52V120H1400.02C1370.69 120 1350.86 124.667 1340.52 134C1330.19 143 1325.02 158.5 1325.02 180.5V320.5C1325.02 342.167 1330.02 357.5 1340.02 366.5C1350.02 375.5 1370.02 380 1400.02 380H1483.52ZM1689.79 385H1684.79V115H1689.79V248H1798.29L1855.79 115H1861.29L1803.79 248H1824.29C1844.63 248 1859.79 251.833 1869.79 259.5C1879.79 267.167 1884.79 279.667 1884.79 297V385H1879.79V297C1879.79 281 1875.13 269.667 1865.79 263C1856.46 256.333 1842.63 253 1824.29 253H1689.79V385ZM1725.79 430C1732.13 430 1736.63 428.667 1739.29 426C1742.29 423 1743.79 418.333 1743.79 412V297.5H1809.79C1815.13 297.5 1819.13 299 1821.79 302C1824.46 305 1825.79 309.167 1825.79 314.5V412C1825.79 418.333 1827.13 423 1829.79 426C1832.79 428.667 1837.46 430 1843.79 430H1920.79C1927.13 430 1931.63 428.667 1934.29 426C1937.29 423 1938.79 418.333 1938.79 412V271C1938.79 251 1933.13 235 1921.79 223C1910.79 210.667 1895.96 204 1877.29 203L1928.29 86.5C1930.63 81.1667 1930.79 77.1667 1928.79 74.5C1926.79 71.5 1922.96 70 1917.29 70H1840.29C1833.96 70 1828.79 71.3333 1824.79 74C1820.79 76.3333 1817.63 80.5 1815.29 86.5L1763.79 203H1743.79V88C1743.79 81.6667 1742.29 77.1667 1739.29 74.5C1736.63 71.5 1732.13 70 1725.79 70H1648.29C1641.96 70 1637.29 71.5 1634.29 74.5C1631.63 77.1667 1630.29 81.6667 1630.29 88V412C1630.29 418.333 1631.63 423 1634.29 426C1637.29 428.667 1641.96 430 1648.29 430H1725.79ZM1741.79 430.5L1676.79 484.5C1675.46 485.833 1673.29 487 1670.29 488C1667.63 489 1664.63 489.5 1661.29 489.5H1583.79C1575.79 489.5 1569.96 487.667 1566.29 484C1562.63 480.333 1560.79 474.5 1560.79 466.5V142.5C1560.79 138.167 1561.29 134.5 1562.29 131.5C1563.63 128.5 1565.46 126 1567.79 124L1632.29 69.5C1633.96 68.1667 1636.13 67.1666 1638.79 66.5C1641.79 65.5 1644.96 65 1648.29 65H1725.79C1733.79 65 1739.63 66.8333 1743.29 70.5C1746.96 74.1667 1748.79 80 1748.79 88V133.5C1749.79 132.167 1750.79 130.833 1751.79 129.5C1752.79 127.833 1753.96 126.5 1755.29 125.5L1819.79 71C1822.13 69 1824.96 67.5 1828.29 66.5C1831.96 65.5 1835.96 65 1840.29 65H1917.29C1925.63 65 1931.13 67.1667 1933.79 71.5C1936.46 75.5 1936.13 81.1666 1932.79 88.5L1884.79 198.5C1902.79 200.833 1917.13 208.5 1927.79 221.5C1938.46 234.5 1943.79 251 1943.79 271V412C1943.79 416.333 1943.13 420 1941.79 423C1940.79 426 1939.13 428.5 1936.79 430.5L1871.79 484.5C1870.46 485.833 1868.29 487 1865.29 488C1862.63 489 1859.63 489.5 1856.29 489.5H1779.29C1771.29 489.5 1765.46 487.667 1761.79 484C1758.13 480.333 1756.29 474.5 1756.29 466.5V369C1756.29 365.667 1755.63 363 1754.29 361C1752.96 359 1751.13 357.833 1748.79 357.5V412C1748.79 416.333 1748.13 420 1746.79 423C1745.79 426 1744.13 428.5 1741.79 430.5Z" fill="#423636"/>
<path d="M36 484L32.4645 487.536L36 484ZM32 131.5L27.4309 129.469L27.3329 129.69L27.2566 129.919L32 131.5ZM37.5 124L34.2729 120.181L34.2594 120.192L34.246 120.204L37.5 124ZM102 69.5L98.8765 65.5957L98.8242 65.6375L98.7729 65.6808L102 69.5ZM108.5 66.5L109.713 71.3507L109.899 71.3041L110.081 71.2434L108.5 66.5ZM354 85.5L350.791 89.3347L350.815 89.3541L350.838 89.3733L354 85.5ZM373.5 200.5L368.858 198.643L368.825 198.724L368.796 198.806L373.5 200.5ZM359.5 220.5L362.274 224.66L362.441 224.549L362.598 224.424L359.5 220.5ZM358 221.5L355.226 217.34L345.478 223.839L356.915 226.381L358 221.5ZM398.5 247.5L394.356 250.297L394.372 250.322L394.389 250.346L398.5 247.5ZM405.5 387L410.132 388.882L410.142 388.857L410.152 388.833L405.5 387ZM386 414L389.227 417.819L389.23 417.817L386 414ZM321.5 468.5L324.716 472.329L324.722 472.324L324.727 472.319L321.5 468.5ZM290 484L288.728 479.165L288.668 479.18L288.61 479.197L290 484ZM383 410L379.799 406.159L379.779 406.175L379.759 406.192L383 410ZM391.5 246.5L387.626 249.661L387.626 249.661L391.5 246.5ZM344 224.5L342.012 219.912L343.533 229.478L344 224.5ZM366 205L361.629 202.572L361.613 202.601L361.598 202.629L366 205ZM350 89L346.856 92.8881L346.882 92.9086L346.907 92.9287L350 89ZM104 74.5L100.464 70.9645L100.464 70.9645L104 74.5ZM104 426L100.263 429.322L100.458 429.542L100.678 429.737L104 426ZM155.5 385H150.5V390H155.5V385ZM155.5 115V110H150.5V115H155.5ZM290.5 119.5L288.864 124.225L288.947 124.253L289.03 124.279L290.5 119.5ZM310.5 131L306.845 134.412L306.904 134.475L306.964 134.536L310.5 131ZM320 147.5L315.165 148.772L315.165 148.772L320 147.5ZM317 227.5L312.423 225.486L312.389 225.564L312.358 225.643L317 227.5ZM290.5 245.5L289.261 240.656L290.5 250.5V245.5ZM324 250L322.364 254.725L322.447 254.753L322.53 254.779L324 250ZM344 262L340.237 265.293L340.29 265.353L340.345 265.412L344 262ZM353 280L348.088 280.936L348.11 281.047L348.136 281.158L353 280ZM353 355.5L357.818 356.838L357.827 356.805L357.835 356.772L353 355.5ZM343.5 371L340.098 367.336L340.03 367.399L339.964 367.464L343.5 371ZM324 381.5L325.3 386.328L325.386 386.305L325.47 386.279L324 381.5ZM160.5 120V115H155.5V120H160.5ZM160.5 245.5H155.5V250.5H160.5V245.5ZM289.5 242L290.9 246.8L290.991 246.773L291.081 246.743L289.5 242ZM307.5 232L303.964 228.464L303.964 228.464L307.5 232ZM315.5 217.5L310.633 216.355L310.607 216.466L310.586 216.579L315.5 217.5ZM212.5 155V150H207.5V155H212.5ZM269 160L265.284 163.345L265.371 163.443L265.464 163.536L269 160ZM269 204L265.464 200.464L265.371 200.557L265.284 200.655L269 204ZM212.5 209H207.5V214H212.5V209ZM160.5 250.5V245.5H155.5V250.5H160.5ZM160.5 380H155.5V385H160.5V380ZM339 368L342.61 371.46L342.645 371.423L342.68 371.385L339 368ZM339 265.5L334.968 268.457L335 268.5L335.032 268.542L339 265.5ZM212.5 286V281H207.5V286H212.5ZM291.5 291L287.784 294.345L287.96 294.54L288.155 294.716L291.5 291ZM291.5 340L287.964 336.464L287.872 336.557L287.784 336.655L291.5 340ZM212.5 345H207.5V350H212.5V345ZM53.5 484.5C46.1228 484.5 41.863 482.792 39.5355 480.464L32.4645 487.536C37.4703 492.541 44.8772 494.5 53.5 494.5V484.5ZM39.5355 480.464C37.2081 478.137 35.5 473.877 35.5 466.5H25.5C25.5 475.123 27.4586 482.53 32.4645 487.536L39.5355 480.464ZM35.5 466.5V142.5H25.5V466.5H35.5ZM35.5 142.5C35.5 138.52 35.9633 135.422 36.7434 133.081L27.2566 129.919C26.0367 133.578 25.5 137.814 25.5 142.5H35.5ZM36.5691 133.531C37.6217 131.162 39.0227 129.28 40.754 127.796L34.246 120.204C31.3106 122.72 29.045 125.838 27.4309 129.469L36.5691 133.531ZM40.7271 127.819L105.227 73.3192L98.7729 65.6808L34.2729 120.181L40.7271 127.819ZM105.123 73.4043C106.092 72.6298 107.55 71.8912 109.713 71.3507L107.287 61.6493C104.116 62.4421 101.242 63.7035 98.8765 65.5957L105.123 73.4043ZM110.081 71.2434C112.544 70.4224 115.175 70 118 70V60C114.159 60 110.456 60.5776 106.919 61.7565L110.081 71.2434ZM118 70H277.5V60H118V70ZM277.5 70C311.68 70 335.772 76.7674 350.791 89.3347L357.209 81.6653C339.561 66.8993 312.654 60 277.5 60V70ZM350.838 89.3733C365.681 101.49 373.5 120.188 373.5 146.5H383.5C383.5 118.145 374.985 96.1765 357.162 81.6267L350.838 89.3733ZM373.5 146.5V170.5H383.5V146.5H373.5ZM373.5 170.5C373.5 181.712 371.896 191.048 368.858 198.643L378.142 202.357C381.771 193.285 383.5 182.621 383.5 170.5H373.5ZM368.796 198.806C366.08 206.349 361.931 212.21 356.402 216.576L362.598 224.424C369.736 218.79 374.92 211.317 378.204 202.194L368.796 198.806ZM356.726 216.34L355.226 217.34L360.774 225.66L362.274 224.66L356.726 216.34ZM356.915 226.381C373.863 230.147 386.177 238.18 394.356 250.297L402.644 244.703C392.823 230.153 378.137 220.853 359.085 216.619L356.915 226.381ZM394.389 250.346C402.595 262.199 407 279.225 407 302H417C417 278.108 412.405 258.801 402.611 244.654L394.389 250.346ZM407 302V348H417V302H407ZM407 348C407 362.534 404.899 374.885 400.848 385.167L410.152 388.833C414.768 377.115 417 363.466 417 348H407ZM400.868 385.118C396.834 395.047 390.811 403.38 382.77 410.183L389.23 417.817C398.523 409.954 405.499 400.286 410.132 388.882L400.868 385.118ZM382.773 410.181L318.273 464.681L324.727 472.319L389.227 417.819L382.773 410.181ZM318.284 464.671C310.62 471.11 300.823 475.982 288.728 479.165L291.272 488.835C304.51 485.352 315.714 479.89 324.716 472.329L318.284 464.671ZM288.61 479.197C276.503 482.702 262.158 484.5 245.5 484.5V494.5C262.842 494.5 278.163 492.632 291.39 488.803L288.61 479.197ZM245.5 484.5H53.5V494.5H245.5V484.5ZM310 435C343.513 435 369.263 428.257 386.241 413.808L379.759 406.192C365.404 418.41 342.487 425 310 425V435ZM386.201 413.841C403.701 399.258 412 376.942 412 348H402C402 375.058 394.299 394.075 379.799 406.159L386.201 413.841ZM412 348V302H402V348H412ZM412 302C412 277.057 406.717 257.243 395.374 243.339L387.626 249.661C396.95 261.09 402 278.276 402 302H412ZM395.374 243.339C383.955 229.341 366.702 221.606 344.467 219.522L343.533 229.478C363.965 231.394 378.379 238.325 387.626 249.661L395.374 243.339ZM345.988 229.088C356.902 224.358 365.145 217.133 370.402 207.37L361.598 202.629C357.521 210.2 351.098 215.975 342.012 219.912L345.988 229.088ZM370.371 207.428C375.905 197.466 378.5 185.057 378.5 170.5H368.5C368.5 183.943 366.095 194.534 361.629 202.572L370.371 207.428ZM378.5 170.5V146.5H368.5V170.5H378.5ZM378.5 146.5C378.5 119.472 370.311 98.6264 353.093 85.0713L346.907 92.9287C361.022 104.04 368.5 121.528 368.5 146.5H378.5ZM353.144 85.1118C336.182 71.3983 310.65 65 277.5 65V75C309.683 75 332.485 81.2684 346.856 92.8881L353.144 85.1118ZM277.5 65H118V75H277.5V65ZM118 65C110.988 65 104.777 66.6514 100.464 70.9645L107.536 78.0355C109.223 76.3485 112.346 75 118 75V65ZM100.464 70.9645C96.3945 75.0344 95 81.1896 95 88H105C105 82.1437 106.272 79.2989 107.536 78.0355L100.464 70.9645ZM95 88V412H105V88H95ZM95 412C95 418.884 96.4254 425.005 100.263 429.322L107.737 422.678C106.241 420.995 105 417.782 105 412H95ZM100.678 429.737C104.995 433.575 111.116 435 118 435V425C112.218 425 109.005 423.759 107.322 422.263L100.678 429.737ZM118 435H310V425H118V435ZM290 380H155.5V390H290V380ZM160.5 385V115H150.5V385H160.5ZM155.5 120H257V110H155.5V120ZM257 120C270.356 120 280.914 121.473 288.864 124.225L292.136 114.775C282.752 111.527 270.978 110 257 110V120ZM289.03 124.279C297.124 126.77 302.938 130.226 306.845 134.412L314.155 127.588C308.729 121.774 301.209 117.564 291.97 114.721L289.03 124.279ZM306.964 134.536C311.01 138.581 313.725 143.302 315.165 148.772L324.835 146.228C322.942 139.031 319.323 132.752 314.036 127.464L306.964 134.536ZM315.165 148.772C316.71 154.644 317.5 161.046 317.5 168H327.5C327.5 160.288 326.623 153.022 324.835 146.228L315.165 148.772ZM317.5 168V200H327.5V168H317.5ZM317.5 200C317.5 209.375 315.784 217.848 312.423 225.486L321.577 229.514C325.549 220.486 327.5 210.625 327.5 200H317.5ZM312.358 225.643C309.918 231.742 303.051 237.128 289.261 240.656L291.739 250.344C306.616 246.538 317.416 239.924 321.642 229.357L312.358 225.643ZM290.5 250.5C303.856 250.5 314.414 251.973 322.364 254.725L325.636 245.275C316.252 242.027 304.478 240.5 290.5 240.5V250.5ZM322.53 254.779C330.554 257.248 336.331 260.828 340.237 265.293L347.763 258.707C342.336 252.505 334.78 248.085 325.47 245.221L322.53 254.779ZM340.345 265.412C344.339 269.692 346.924 274.822 348.088 280.936L357.912 279.064C356.41 271.178 352.994 264.308 347.655 258.588L340.345 265.412ZM348.136 281.158C349.699 287.725 350.5 294.997 350.5 303H360.5C360.5 294.336 359.634 286.275 357.864 278.842L348.136 281.158ZM350.5 303V335H360.5V303H350.5ZM350.5 335C350.5 341.954 349.71 348.356 348.165 354.228L357.835 356.772C359.624 349.978 360.5 342.712 360.5 335H350.5ZM348.182 354.162C346.769 359.249 344.103 363.617 340.098 367.336L346.902 374.664C352.231 369.716 355.898 363.751 357.818 356.838L348.182 354.162ZM339.964 367.464C336.418 371.011 330.762 374.188 322.53 376.721L325.47 386.279C334.571 383.479 341.915 379.656 347.036 374.536L339.964 367.464ZM322.7 376.672C314.625 378.846 303.777 380 290 380V390C304.223 390 316.042 388.821 325.3 386.328L322.7 376.672ZM257 115H160.5V125H257V115ZM155.5 120V245.5H165.5V120H155.5ZM160.5 250.5H257V240.5H160.5V250.5ZM257 250.5C270.879 250.5 282.249 249.323 290.9 246.8L288.1 237.2C280.751 239.343 270.454 240.5 257 240.5V250.5ZM291.081 246.743C299.486 243.942 306.284 240.287 311.036 235.536L303.964 228.464C300.716 231.713 295.514 234.725 287.919 237.257L291.081 246.743ZM311.036 235.536C315.986 230.585 319.205 224.87 320.414 218.421L310.586 216.579C309.795 220.797 307.681 224.748 303.964 228.464L311.036 235.536ZM320.367 218.645C321.791 212.592 322.5 206.374 322.5 200H312.5C312.5 205.626 311.875 211.075 310.633 216.355L320.367 218.645ZM322.5 200V168H312.5V200H322.5ZM322.5 168C322.5 153.637 318.343 141.148 309.864 130.826L302.136 137.174C308.991 145.518 312.5 155.696 312.5 168H322.5ZM309.864 130.826C305.172 125.115 298.134 121.195 289.374 118.692C280.604 116.187 269.768 115 257 115V125C269.232 125 279.063 126.147 286.626 128.308C294.199 130.471 299.161 133.552 302.136 137.174L309.864 130.826ZM212.5 160H255V150H212.5V160ZM255 160C260.517 160 263.571 161.442 265.284 163.345L272.716 156.655C268.429 151.892 262.15 150 255 150V160ZM265.464 163.536C267.529 165.6 269 169.104 269 175H279C279 167.563 277.137 161.066 272.536 156.464L265.464 163.536ZM269 175V189H279V175H269ZM269 189C269 194.896 267.529 198.4 265.464 200.464L272.536 207.536C277.137 202.934 279 196.437 279 189H269ZM265.284 200.655C263.571 202.558 260.517 204 255 204V214C262.15 214 268.429 212.108 272.716 207.345L265.284 200.655ZM255 204H212.5V214H255V204ZM217.5 209V155H207.5V209H217.5ZM290.5 245.5H160.5V255.5H290.5V245.5ZM155.5 250.5V380H165.5V250.5H155.5ZM160.5 385H290V375H160.5V385ZM290 385C302.727 385 313.495 383.986 322.189 381.856C330.835 379.739 337.861 376.415 342.61 371.46L335.39 364.54C332.472 367.585 327.498 370.261 319.811 372.144C312.172 374.014 302.273 375 290 375V385ZM342.68 371.385C351.364 361.946 355.5 349.647 355.5 335H345.5C345.5 347.686 341.969 357.388 335.32 364.615L342.68 371.385ZM355.5 335V303H345.5V335H355.5ZM355.5 303C355.5 287.117 351.425 273.488 342.968 262.458L335.032 268.542C341.909 277.512 345.5 288.883 345.5 303H355.5ZM343.032 262.543C338.536 256.412 331.593 252.176 322.852 249.473C314.121 246.773 303.286 245.5 290.5 245.5V255.5C302.714 255.5 312.462 256.727 319.898 259.027C327.324 261.323 332.131 264.588 334.968 268.457L343.032 262.543ZM212.5 291H277.5V281H212.5V291ZM277.5 291C283.017 291 286.071 292.442 287.784 294.345L295.216 287.655C290.929 282.892 284.65 281 277.5 281V291ZM288.155 294.716C290.01 296.386 291.5 299.555 291.5 305.5H301.5C301.5 298.111 299.657 291.614 294.845 287.284L288.155 294.716ZM291.5 305.5V325H301.5V305.5H291.5ZM291.5 325C291.5 330.896 290.029 334.4 287.964 336.464L295.036 343.536C299.637 338.934 301.5 332.437 301.5 325H291.5ZM287.784 336.655C286.071 338.558 283.017 340 277.5 340V350C284.65 350 290.929 348.108 295.216 343.345L287.784 336.655ZM277.5 340H212.5V350H277.5V340ZM217.5 345V286H207.5V345H217.5ZM566.598 120V115H561.598V120H566.598ZM566.598 264.5H561.598V269.5H566.598V264.5ZM717.098 249.5L721.194 252.367L721.194 252.367L717.098 249.5ZM714.598 134.5L710.811 137.765L710.842 137.802L710.875 137.838L714.598 134.5ZM620.598 160V155H615.598V160H620.598ZM675.598 167L671.392 169.704L671.438 169.776L671.487 169.846L675.598 167ZM675.598 217.5L679.709 220.346L679.757 220.276L679.804 220.204L675.598 217.5ZM620.598 224H615.598V229H620.598V224ZM566.598 385V390H571.598V385H566.598ZM561.598 385H556.598V390H561.598V385ZM561.598 115V110H556.598V115H561.598ZM718.598 131.5L714.785 134.735L714.81 134.764L714.835 134.793L718.598 131.5ZM726.598 244.5L731.218 246.412L731.229 246.384L731.24 246.357L726.598 244.5ZM702.598 264.5L701.137 259.718L702.598 269.5V264.5ZM753.598 278.5L750.186 282.155L750.219 282.186L750.253 282.216L753.598 278.5ZM768.598 385V390H773.598V385H768.598ZM763.598 385H758.598V390H763.598V385ZM750.098 281.5L746.701 285.169L746.738 285.203L746.776 285.237L750.098 281.5ZM566.598 269V264H561.598V269H566.598ZM616.098 426L619.633 429.536L619.633 429.536L616.098 426ZM620.598 314V309H615.598V314H620.598ZM705.098 319.5L701.054 322.441L701.207 322.651L701.381 322.845L705.098 319.5ZM713.598 426L709.861 429.322L710.056 429.542L710.276 429.737L713.598 426ZM818.598 426L822.133 429.536L822.133 429.536L818.598 426ZM806.098 255.5L802.322 258.778L802.347 258.806L802.371 258.834L806.098 255.5ZM762.598 233.5L760.664 228.889L742.893 236.341L762.046 238.469L762.598 233.5ZM784.098 212.5L779.51 210.512L779.493 210.55L779.478 210.588L784.098 212.5ZM769.098 93.5L765.369 96.8316L765.407 96.8734L765.445 96.9144L769.098 93.5ZM511.598 74.5L508.062 70.9645L508.062 70.9645L511.598 74.5ZM511.598 426L507.861 429.322L508.056 429.542L508.276 429.737L511.598 426ZM618.598 430.5L621.793 434.346L621.822 434.321L621.852 434.296L618.598 430.5ZM553.598 484.5L550.403 480.654L550.225 480.801L550.062 480.964L553.598 484.5ZM547.098 488L545.517 483.257L545.429 483.286L545.342 483.318L547.098 488ZM443.598 484L440.062 487.536L443.598 484ZM439.598 131.5L435.029 129.469L434.931 129.69L434.854 129.919L439.598 131.5ZM445.098 124L441.871 120.181L441.857 120.192L441.844 120.204L445.098 124ZM509.598 69.5L506.474 65.5957L506.422 65.6375L506.371 65.6808L509.598 69.5ZM516.098 66.5L517.31 71.3507L517.497 71.3041L517.679 71.2434L516.098 66.5ZM773.598 90L769.844 93.3031L769.861 93.322L769.877 93.3406L773.598 90ZM791.098 209L795.841 210.581L795.85 210.556L795.858 210.53L791.098 209ZM776.598 231V236H778.436L779.836 234.81L776.598 231ZM776.098 231V226L774.765 235.819L776.098 231ZM813.598 257L809.536 259.916L809.56 259.95L809.585 259.984L813.598 257ZM826.098 423L821.529 420.969L821.431 421.19L821.354 421.419L826.098 423ZM821.098 430.5L824.293 434.346L824.322 434.321L824.352 434.296L821.098 430.5ZM756.098 484.5L752.903 480.654L752.725 480.801L752.562 480.964L756.098 484.5ZM749.598 488L748.017 483.257L747.929 483.286L747.842 483.318L749.598 488ZM645.598 484L642.062 487.536L642.062 487.536L645.598 484ZM637.098 378L632.937 380.774L633.014 380.889L633.098 381L637.098 378ZM625.598 373.5V368.5H620.598V373.5H625.598ZM623.598 423L619.029 420.969L618.931 421.19L618.854 421.419L623.598 423ZM675.598 115H566.598V125H675.598V115ZM561.598 120V264.5H571.598V120H561.598ZM566.598 269.5H675.598V259.5H566.598V269.5ZM675.598 269.5C696.77 269.5 712.759 264.417 721.194 252.367L713.002 246.633C707.436 254.583 695.759 259.5 675.598 259.5V269.5ZM721.194 252.367C729.01 241.202 732.598 225.874 732.598 207H722.598C722.598 224.793 719.186 237.798 713.002 246.633L721.194 252.367ZM732.598 207V172H722.598V207H732.598ZM732.598 172C732.598 155.671 727.955 141.908 718.321 131.162L710.875 137.838C718.574 146.425 722.598 157.663 722.598 172H732.598ZM718.385 131.235C708.777 120.091 694.136 115 675.598 115V125C692.393 125 703.751 129.576 710.811 137.765L718.385 131.235ZM620.598 165H658.098V155H620.598V165ZM658.098 165C666.065 165 669.747 167.145 671.392 169.704L679.804 164.296C675.448 157.522 667.463 155 658.098 155V165ZM671.487 169.846C673.771 173.146 675.098 177.58 675.098 183.5H685.098C685.098 176.086 683.424 169.521 679.709 164.154L671.487 169.846ZM675.098 183.5V200.5H685.098V183.5H675.098ZM675.098 200.5C675.098 206.403 673.777 211.086 671.392 214.796L679.804 220.204C683.418 214.581 685.098 207.93 685.098 200.5H675.098ZM671.487 214.654C669.897 216.95 666.192 219 658.098 219V229C667.336 229 675.298 226.717 679.709 220.346L671.487 214.654ZM658.098 219H620.598V229H658.098V219ZM625.598 224V160H615.598V224H625.598ZM566.598 380H561.598V390H566.598V380ZM566.598 385V115H556.598V385H566.598ZM561.598 120H675.598V110H561.598V120ZM675.598 120C693.992 120 706.698 125.203 714.785 134.735L722.41 128.265C711.831 115.797 695.87 110 675.598 110V120ZM714.835 134.793C723.25 144.41 727.598 156.682 727.598 172H737.598C737.598 154.652 732.612 139.923 722.361 128.207L714.835 134.793ZM727.598 172V206.5H737.598V172H727.598ZM727.598 206.5C727.598 221.446 725.642 233.427 721.955 242.643L731.24 246.357C735.554 235.573 737.598 222.221 737.598 206.5H727.598ZM721.978 242.588C718.664 250.596 712.023 256.392 701.137 259.718L704.059 269.282C717.173 265.275 726.531 257.737 731.218 246.412L721.978 242.588ZM702.598 269.5H708.098V259.5H702.598V269.5ZM708.098 269.5C727.769 269.5 741.475 274.025 750.186 282.155L757.009 274.845C745.72 264.308 729.093 259.5 708.098 259.5V269.5ZM750.253 282.216C758.914 290.012 763.598 301.649 763.598 318H773.598C773.598 299.684 768.281 284.988 756.943 274.784L750.253 282.216ZM763.598 318V385H773.598V318H763.598ZM768.598 380H763.598V390H768.598V380ZM768.598 385V318H758.598V385H768.598ZM768.598 318C768.598 300.771 763.829 287.016 753.419 277.763L746.776 285.237C754.366 291.984 758.598 302.562 758.598 318H768.598ZM753.495 277.831C743.176 268.277 727.69 264 708.098 264V274C726.505 274 739.019 278.056 746.701 285.169L753.495 277.831ZM708.098 264H566.598V274H708.098V264ZM561.598 269V385H571.598V269H561.598ZM602.598 435C609.408 435 615.563 433.605 619.633 429.536L612.562 422.464C611.299 423.728 608.454 425 602.598 425V435ZM619.633 429.536C623.946 425.223 625.598 419.012 625.598 412H615.598C615.598 417.654 614.249 420.777 612.562 422.464L619.633 429.536ZM625.598 412V314H615.598V412H625.598ZM620.598 319H690.598V309H620.598V319ZM690.598 319C696.894 319 699.754 320.653 701.054 322.441L709.141 316.559C705.108 311.014 698.301 309 690.598 309V319ZM701.381 322.845C703.168 324.83 704.598 328.665 704.598 335.5H714.598C714.598 327.668 713.028 320.837 708.814 316.155L701.381 322.845ZM704.598 335.5V412H714.598V335.5H704.598ZM704.598 412C704.598 418.884 706.023 425.005 709.861 429.322L717.335 422.678C715.839 420.995 714.598 417.782 714.598 412H704.598ZM710.276 429.737C714.593 433.575 720.713 435 727.598 435V425C721.815 425 718.602 423.759 716.919 422.263L710.276 429.737ZM727.598 435H805.098V425H727.598V435ZM805.098 435C811.908 435 818.063 433.605 822.133 429.536L815.062 422.464C813.799 423.728 810.954 425 805.098 425V435ZM822.133 429.536C826.446 425.223 828.098 419.012 828.098 412H818.098C818.098 417.654 816.749 420.777 815.062 422.464L822.133 429.536ZM828.098 412V306H818.098V412H828.098ZM828.098 306C828.098 284.072 822.159 265.952 809.824 252.166L802.371 258.834C812.703 270.381 818.098 285.928 818.098 306H828.098ZM809.873 252.222C797.98 238.527 782.29 230.657 763.15 228.531L762.046 238.469C778.905 240.343 792.215 247.14 802.322 258.778L809.873 252.222ZM764.531 238.111C775.986 233.308 784.175 225.39 788.718 214.412L779.478 210.588C776.02 218.943 769.876 225.026 760.664 228.889L764.531 238.111ZM788.685 214.488C793.356 203.709 795.598 190.997 795.598 176.5H785.598C785.598 190.003 783.506 201.291 779.51 210.512L788.685 214.488ZM795.598 176.5V153.5H785.598V176.5H795.598ZM795.598 153.5C795.598 127.802 788.099 106.505 772.75 90.0856L765.445 96.9144C778.763 111.162 785.598 129.864 785.598 153.5H795.598ZM772.826 90.1683C757.357 72.8579 729.821 65 692.098 65V75C729.041 75 752.838 82.8087 765.369 96.8316L772.826 90.1683ZM692.098 65H525.598V75H692.098V65ZM525.598 65C518.585 65 512.375 66.6514 508.062 70.9645L515.133 78.0355C516.82 76.3485 519.943 75 525.598 75V65ZM508.062 70.9645C503.992 75.0344 502.598 81.1896 502.598 88H512.598C512.598 82.1437 513.87 79.2989 515.133 78.0355L508.062 70.9645ZM502.598 88V412H512.598V88H502.598ZM502.598 412C502.598 418.884 504.023 425.005 507.861 429.322L515.335 422.678C513.839 420.995 512.598 417.782 512.598 412H502.598ZM508.276 429.737C512.593 433.575 518.713 435 525.598 435V425C519.815 425 516.602 423.759 514.919 422.263L508.276 429.737ZM525.598 435H602.598V425H525.598V435ZM615.403 426.654L550.403 480.654L556.793 488.346L621.793 434.346L615.403 426.654ZM550.062 480.964C549.53 481.497 548.216 482.357 545.517 483.257L548.679 492.743C551.979 491.643 554.999 490.17 557.133 488.036L550.062 480.964ZM545.342 483.318C543.324 484.075 540.932 484.5 538.098 484.5V494.5C541.93 494.5 545.538 493.925 548.853 492.682L545.342 483.318ZM538.098 484.5H461.098V494.5H538.098V484.5ZM461.098 484.5C453.721 484.5 449.461 482.792 447.133 480.464L440.062 487.536C445.068 492.541 452.475 494.5 461.098 494.5V484.5ZM447.133 480.464C444.806 478.137 443.098 473.877 443.098 466.5H433.098C433.098 475.123 435.056 482.53 440.062 487.536L447.133 480.464ZM443.098 466.5V142.5H433.098V466.5H443.098ZM443.098 142.5C443.098 138.52 443.561 135.422 444.341 133.081L434.854 129.919C433.634 133.578 433.098 137.814 433.098 142.5H443.098ZM444.167 133.531C445.219 131.162 446.62 129.28 448.352 127.796L441.844 120.204C438.908 122.72 436.643 125.838 435.029 129.469L444.167 133.531ZM448.325 127.819L512.825 73.3192L506.371 65.6808L441.871 120.181L448.325 127.819ZM512.721 73.4043C513.689 72.6298 515.148 71.8912 517.31 71.3507L514.885 61.6493C511.714 62.4421 508.839 63.7035 506.474 65.5957L512.721 73.4043ZM517.679 71.2434C520.142 70.4224 522.772 70 525.598 70V60C521.756 60 518.053 60.5776 514.517 61.7565L517.679 71.2434ZM525.598 70H692.098V60H525.598V70ZM692.098 70C731.384 70 756.653 78.3127 769.844 93.3031L777.351 86.6969C761.209 68.3539 732.145 60 692.098 60V70ZM769.877 93.3406C783.572 108.592 790.598 128.493 790.598 153.5H800.598C800.598 126.507 792.956 104.075 777.318 86.6594L769.877 93.3406ZM790.598 153.5V176.5H800.598V153.5H790.598ZM790.598 176.5C790.598 188.442 789.144 198.74 786.338 207.47L795.858 210.53C799.052 200.594 800.598 189.225 800.598 176.5H790.598ZM786.354 207.419C783.618 215.628 779.272 222.165 773.359 227.19L779.836 234.81C787.257 228.502 792.578 220.372 795.841 210.581L786.354 207.419ZM776.598 226H776.098V236H776.598V226ZM774.765 235.819C789.35 239.853 800.88 247.859 809.536 259.916L817.659 254.084C807.649 240.141 794.179 230.813 777.431 226.181L774.765 235.819ZM809.585 259.984C818.483 271.95 823.098 287.173 823.098 306H833.098C833.098 285.494 828.046 268.05 817.61 254.016L809.585 259.984ZM823.098 306V412H833.098V306H823.098ZM823.098 412C823.098 415.847 822.502 418.778 821.529 420.969L830.667 425.031C832.36 421.222 833.098 416.82 833.098 412H823.098ZM821.354 421.419C820.632 423.585 819.468 425.311 817.844 426.704L824.352 434.296C827.394 431.689 829.563 428.415 830.841 424.581L821.354 421.419ZM817.903 426.654L752.903 480.654L759.293 488.346L824.293 434.346L817.903 426.654ZM752.562 480.964C752.03 481.497 750.716 482.357 748.017 483.257L751.179 492.743C754.479 491.643 757.499 490.17 759.633 488.036L752.562 480.964ZM747.842 483.318C745.824 484.075 743.432 484.5 740.598 484.5V494.5C744.43 494.5 748.038 493.925 751.353 492.682L747.842 483.318ZM740.598 484.5H663.098V494.5H740.598V484.5ZM663.098 484.5C655.721 484.5 651.461 482.792 649.133 480.464L642.062 487.536C647.068 492.541 654.475 494.5 663.098 494.5V484.5ZM649.133 480.464C646.806 478.137 645.098 473.877 645.098 466.5H635.098C635.098 475.123 637.056 482.53 642.062 487.536L649.133 480.464ZM645.098 466.5V390H635.098V466.5H645.098ZM645.098 390C645.098 384.186 644.033 378.914 641.098 375L633.098 381C634.162 382.42 635.098 385.147 635.098 390H645.098ZM641.258 375.226C637.941 370.251 632.25 368.5 626.098 368.5V378.5C630.612 378.5 632.255 379.749 632.937 380.774L641.258 375.226ZM626.098 368.5H625.598V378.5H626.098V368.5ZM620.598 373.5V412H630.598V373.5H620.598ZM620.598 412C620.598 415.847 620.002 418.778 619.029 420.969L628.167 425.031C629.86 421.222 630.598 416.82 630.598 412H620.598ZM618.854 421.419C618.132 423.585 616.968 425.311 615.344 426.704L621.852 434.296C624.894 431.689 627.063 428.415 628.341 424.581L618.854 421.419ZM851.984 484L855.52 480.464L855.52 480.464L851.984 484ZM847.984 396L843.415 393.969L843.317 394.19L843.241 394.419L847.984 396ZM853.484 388.5L850.262 384.677L850.246 384.69L850.23 384.704L853.484 388.5ZM913.984 337.5L917.207 341.323L918.984 339.825V337.5H913.984ZM913.984 226H918.984V221H913.984V226ZM851.984 220.5L855.52 216.964L855.52 216.964L851.984 220.5ZM847.984 131.5L843.415 129.469L843.317 129.69L843.241 129.919L847.984 131.5ZM853.484 124L850.257 120.181L850.244 120.192L850.23 120.204L853.484 124ZM917.984 69.5L914.861 65.5957L914.809 65.6375L914.757 65.6808L917.984 69.5ZM924.484 66.5L925.697 71.3507L925.883 71.3041L926.065 71.2434L924.484 66.5ZM1167.98 159.5L1163.42 157.469L1163.32 157.69L1163.24 157.919L1167.98 159.5ZM1162.98 167L1166.2 170.828L1166.22 170.812L1166.24 170.796L1162.98 167ZM1103.48 217L1100.27 213.172L1098.48 214.671V217H1103.48ZM1103.48 329.5H1098.48V334.5H1103.48V329.5ZM1164.48 335L1160.95 338.536L1160.95 338.536L1164.48 335ZM1167.98 423L1163.42 420.969L1163.32 421.19L1163.24 421.419L1167.98 423ZM1162.98 430.5L1166.18 434.346L1166.21 434.321L1166.24 434.296L1162.98 430.5ZM1097.98 484.5L1094.79 480.654L1094.61 480.801L1094.45 480.964L1097.98 484.5ZM1091.48 488L1089.9 483.257L1089.82 483.286L1089.73 483.318L1091.48 488ZM1160.48 426L1156.95 422.464L1156.95 422.464L1160.48 426ZM1160.48 339L1156.75 342.322L1156.94 342.542L1157.16 342.737L1160.48 339ZM1098.48 334.5H1093.48V339.5H1098.48V334.5ZM1098.48 166.5V161.5H1093.48V166.5H1098.48ZM1160.48 162.5L1156.95 158.964L1156.95 158.964L1160.48 162.5ZM1160.48 74.5L1156.75 77.8218L1156.94 78.0416L1157.16 78.237L1160.48 74.5ZM919.984 74.5L916.449 70.9645L916.449 70.9645L919.984 74.5ZM919.984 162.5L916.247 165.822L916.443 166.042L916.663 166.237L919.984 162.5ZM983.484 166.5H988.484V161.5H983.484V166.5ZM983.484 334.5V339.5H988.484V334.5H983.484ZM919.984 339L923.52 342.536L923.52 342.536L919.984 339ZM919.984 426L916.247 429.322L916.443 429.542L916.663 429.737L919.984 426ZM1119.98 385V390H1124.98V385H1119.98ZM960.984 385H955.984V390H960.984V385ZM960.984 380V375H955.984V380H960.984ZM1038.48 380V385H1043.48V380H1038.48ZM1038.48 120H1043.48V115H1038.48V120ZM960.984 120H955.984V125H960.984V120ZM960.984 115V110H955.984V115H960.984ZM1119.98 115H1124.98V110H1119.98V115ZM1119.98 120V125H1124.98V120H1119.98ZM1043.48 120V115H1038.48V120H1043.48ZM1043.48 380H1038.48V385H1043.48V380ZM1119.98 380H1124.98V375H1119.98V380ZM1082.48 484.5H869.484V494.5H1082.48V484.5ZM869.484 484.5C862.107 484.5 857.847 482.792 855.52 480.464L848.449 487.536C853.455 492.541 860.862 494.5 869.484 494.5V484.5ZM855.52 480.464C853.192 478.137 851.484 473.877 851.484 466.5H841.484C841.484 475.123 843.443 482.53 848.449 487.536L855.52 480.464ZM851.484 466.5V407H841.484V466.5H851.484ZM851.484 407C851.484 403.02 851.948 399.922 852.728 397.581L843.241 394.419C842.021 398.078 841.484 402.314 841.484 407H851.484ZM852.553 398.031C853.606 395.662 855.007 393.78 856.738 392.296L850.23 384.704C847.295 387.22 845.029 390.338 843.415 393.969L852.553 398.031ZM856.707 392.323L917.207 341.323L910.762 333.677L850.262 384.677L856.707 392.323ZM918.984 337.5V226H908.984V337.5H918.984ZM913.984 221H869.484V231H913.984V221ZM869.484 221C862.107 221 857.847 219.292 855.52 216.964L848.449 224.036C853.455 229.041 860.862 231 869.484 231V221ZM855.52 216.964C853.192 214.637 851.484 210.377 851.484 203H841.484C841.484 211.623 843.443 219.03 848.449 224.036L855.52 216.964ZM851.484 203V142.5H841.484V203H851.484ZM851.484 142.5C851.484 138.52 851.948 135.422 852.728 133.081L843.241 129.919C842.021 133.578 841.484 137.814 841.484 142.5H851.484ZM852.553 133.531C853.606 131.162 855.007 129.28 856.738 127.796L850.23 120.204C847.295 122.72 845.029 125.838 843.415 129.469L852.553 133.531ZM856.711 127.819L921.211 73.3192L914.757 65.6808L850.257 120.181L856.711 127.819ZM921.108 73.4043C922.076 72.6298 923.535 71.8912 925.697 71.3507L923.272 61.6493C920.101 62.4421 917.226 63.7035 914.861 65.5957L921.108 73.4043ZM926.065 71.2434C928.529 70.4224 931.159 70 933.984 70V60C930.143 60 926.44 60.5776 922.903 61.7565L926.065 71.2434ZM933.984 70H1146.98V60H933.984V70ZM1146.98 70C1154.36 70 1158.62 71.7081 1160.95 74.0355L1168.02 66.9644C1163.01 61.9586 1155.61 60 1146.98 60V70ZM1160.95 74.0355C1163.28 76.363 1164.98 80.6228 1164.98 88H1174.98C1174.98 79.3771 1173.03 71.9703 1168.02 66.9644L1160.95 74.0355ZM1164.98 88V148.5H1174.98V88H1164.98ZM1164.98 148.5C1164.98 152.347 1164.39 155.278 1163.42 157.469L1172.55 161.531C1174.25 157.722 1174.98 153.32 1174.98 148.5H1164.98ZM1163.24 157.919C1162.52 160.085 1161.36 161.811 1159.73 163.204L1166.24 170.796C1169.28 168.189 1171.45 164.915 1172.73 161.081L1163.24 157.919ZM1159.77 163.172L1100.27 213.172L1106.7 220.828L1166.2 170.828L1159.77 163.172ZM1098.48 217V329.5H1108.48V217H1098.48ZM1103.48 334.5H1146.98V324.5H1103.48V334.5ZM1146.98 334.5C1154.36 334.5 1158.62 336.208 1160.95 338.536L1168.02 331.464C1163.01 326.459 1155.61 324.5 1146.98 324.5V334.5ZM1160.95 338.536C1163.28 340.863 1164.98 345.123 1164.98 352.5H1174.98C1174.98 343.877 1173.03 336.47 1168.02 331.464L1160.95 338.536ZM1164.98 352.5V412H1174.98V352.5H1164.98ZM1164.98 412C1164.98 415.847 1164.39 418.778 1163.42 420.969L1172.55 425.031C1174.25 421.222 1174.98 416.82 1174.98 412H1164.98ZM1163.24 421.419C1162.52 423.585 1161.36 425.311 1159.73 426.704L1166.24 434.296C1169.28 431.689 1171.45 428.415 1172.73 424.581L1163.24 421.419ZM1159.79 426.654L1094.79 480.654L1101.18 488.346L1166.18 434.346L1159.79 426.654ZM1094.45 480.964C1093.92 481.497 1092.6 482.357 1089.9 483.257L1093.07 492.743C1096.37 491.643 1099.39 490.17 1101.52 488.036L1094.45 480.964ZM1089.73 483.318C1087.71 484.075 1085.32 484.5 1082.48 484.5V494.5C1086.32 494.5 1089.93 493.925 1093.24 492.682L1089.73 483.318ZM933.984 435H1146.98V425H933.984V435ZM1146.98 435C1153.79 435 1159.95 433.605 1164.02 429.536L1156.95 422.464C1155.69 423.728 1152.84 425 1146.98 425V435ZM1164.02 429.536C1168.33 425.223 1169.98 419.012 1169.98 412H1159.98C1159.98 417.654 1158.64 420.777 1156.95 422.464L1164.02 429.536ZM1169.98 412V352.5H1159.98V412H1169.98ZM1169.98 352.5C1169.98 345.552 1168.36 339.31 1163.81 335.263L1157.16 342.737C1158.61 344.023 1159.98 346.781 1159.98 352.5H1169.98ZM1164.22 335.678C1160.17 331.125 1153.93 329.5 1146.98 329.5V339.5C1152.7 339.5 1155.46 340.875 1156.75 342.322L1164.22 335.678ZM1146.98 329.5H1098.48V339.5H1146.98V329.5ZM1103.48 334.5V166.5H1093.48V334.5H1103.48ZM1098.48 171.5H1146.98V161.5H1098.48V171.5ZM1146.98 171.5C1153.79 171.5 1159.95 170.105 1164.02 166.036L1156.95 158.964C1155.69 160.228 1152.84 161.5 1146.98 161.5V171.5ZM1164.02 166.036C1168.33 161.723 1169.98 155.512 1169.98 148.5H1159.98C1159.98 154.154 1158.64 157.277 1156.95 158.964L1164.02 166.036ZM1169.98 148.5V88H1159.98V148.5H1169.98ZM1169.98 88C1169.98 81.0523 1168.36 74.8104 1163.81 70.7629L1157.16 78.237C1158.61 79.5229 1159.98 82.2811 1159.98 88H1169.98ZM1164.22 71.1782C1160.17 66.6248 1153.93 65 1146.98 65V75C1152.7 75 1155.46 76.3752 1156.75 77.8218L1164.22 71.1782ZM1146.98 65H933.984V75H1146.98V65ZM933.984 65C926.972 65 920.762 66.6514 916.449 70.9645L923.52 78.0355C925.207 76.3485 928.33 75 933.984 75V65ZM916.449 70.9645C912.379 75.0344 910.984 81.1896 910.984 88H920.984C920.984 82.1437 922.257 79.2989 923.52 78.0355L916.449 70.9645ZM910.984 88V148.5H920.984V88H910.984ZM910.984 148.5C910.984 155.384 912.41 161.505 916.247 165.822L923.721 159.178C922.226 157.495 920.984 154.282 920.984 148.5H910.984ZM916.663 166.237C920.98 170.075 927.1 171.5 933.984 171.5V161.5C928.202 161.5 924.989 160.259 923.306 158.763L916.663 166.237ZM933.984 171.5H983.484V161.5H933.984V171.5ZM978.484 166.5V334.5H988.484V166.5H978.484ZM983.484 329.5H933.984V339.5H983.484V329.5ZM933.984 329.5C926.972 329.5 920.762 331.151 916.449 335.464L923.52 342.536C925.207 340.849 928.33 339.5 933.984 339.5V329.5ZM916.449 335.464C912.379 339.534 910.984 345.69 910.984 352.5H920.984C920.984 346.644 922.257 343.799 923.52 342.536L916.449 335.464ZM910.984 352.5V412H920.984V352.5H910.984ZM910.984 412C910.984 418.884 912.41 425.005 916.247 429.322L923.721 422.678C922.226 420.995 920.984 417.782 920.984 412H910.984ZM916.663 429.737C920.98 433.575 927.1 435 933.984 435V425C928.202 425 924.989 423.759 923.306 422.263L916.663 429.737ZM1119.98 380H960.984V390H1119.98V380ZM965.984 385V380H955.984V385H965.984ZM960.984 385H1038.48V375H960.984V385ZM1043.48 380V120H1033.48V380H1043.48ZM1038.48 115H960.984V125H1038.48V115ZM965.984 120V115H955.984V120H965.984ZM960.984 120H1119.98V110H960.984V120ZM1114.98 115V120H1124.98V115H1114.98ZM1119.98 115H1043.48V125H1119.98V115ZM1038.48 120V380H1048.48V120H1038.48ZM1043.48 385H1119.98V375H1043.48V385ZM1114.98 380V385H1124.98V380H1114.98ZM1227.52 455.5L1223.83 458.869L1223.84 458.883L1223.86 458.898L1227.52 455.5ZM1204.52 179.5L1209.17 181.357L1209.17 181.337L1209.18 181.318L1204.52 179.5ZM1228.02 145.5L1224.81 141.669L1224.77 141.699L1224.74 141.73L1228.02 145.5ZM1293.02 91L1296.24 94.8314L1296.24 94.8309L1293.02 91ZM1332.52 71.5L1333.83 76.3261L1333.83 76.3261L1332.52 71.5ZM1532.02 159.5L1527.45 157.469L1527.36 157.69L1527.28 157.919L1532.02 159.5ZM1527.02 167L1530.22 170.846L1530.25 170.821L1530.28 170.796L1527.02 167ZM1462.02 221L1458.83 217.154L1458.65 217.301L1458.49 217.464L1462.02 221ZM1455.52 224.5L1453.94 219.757L1453.85 219.786L1453.77 219.818L1455.52 224.5ZM1385.02 226V221H1380.02V226H1385.02ZM1391.52 325.5L1388.68 329.611L1388.79 329.688L1388.9 329.758L1391.52 325.5ZM1528.52 335L1524.99 338.536L1524.99 338.536L1528.52 335ZM1532.02 423L1527.45 420.969L1527.36 421.19L1527.28 421.419L1532.02 423ZM1527.02 430.5L1530.22 434.346L1530.25 434.321L1530.28 434.296L1527.02 430.5ZM1462.02 484.5L1458.83 480.654L1458.65 480.801L1458.49 480.964L1462.02 484.5ZM1455.52 488L1453.94 483.257L1453.85 483.286L1453.77 483.318L1455.52 488ZM1524.52 426L1528.06 429.536L1528.06 429.536L1524.52 426ZM1524.52 339L1520.79 342.322L1520.98 342.542L1521.2 342.737L1524.52 339ZM1387.52 329L1384.4 332.904L1384.48 332.97L1384.57 333.032L1387.52 329ZM1387.52 173L1390.65 176.904L1390.72 176.843L1390.8 176.778L1387.52 173ZM1524.52 74.5L1520.79 77.8218L1520.98 78.0416L1521.2 78.237L1524.52 74.5ZM1296.02 95.5L1299.22 99.3411L1299.23 99.3359L1296.02 95.5ZM1296.02 405L1292.82 408.841L1292.84 408.854L1292.85 408.867L1296.02 405ZM1483.52 380H1488.52V375H1483.52V380ZM1483.52 385V390H1488.52V385H1483.52ZM1335.52 370L1332.05 373.593L1332.07 373.621L1332.1 373.648L1335.52 370ZM1336.02 130L1339.44 133.648L1339.44 133.648L1336.02 130ZM1483.52 115H1488.52V110H1483.52V115ZM1483.52 120V125H1488.52V120H1483.52ZM1340.52 134L1343.81 137.77L1343.84 137.741L1343.87 137.711L1340.52 134ZM1340.02 366.5L1336.68 370.216L1336.68 370.216L1340.02 366.5ZM1446.52 484.5H1324.52V494.5H1446.52V484.5ZM1324.52 484.5C1281.66 484.5 1250.91 473.383 1231.19 452.102L1223.86 458.898C1246.14 482.95 1280.05 494.5 1324.52 494.5V484.5ZM1231.22 452.131C1211.53 430.542 1201.52 402.484 1201.52 367.5H1191.52C1191.52 404.516 1202.18 435.124 1223.83 458.869L1231.22 452.131ZM1201.52 367.5V227H1191.52V367.5H1201.52ZM1201.52 227C1201.52 209.134 1204.12 193.961 1209.17 181.357L1199.88 177.643C1194.26 191.705 1191.52 208.199 1191.52 227H1201.52ZM1209.18 181.318C1214.24 168.349 1221.63 157.703 1231.31 149.27L1224.74 141.73C1213.75 151.297 1205.47 163.318 1199.87 177.682L1209.18 181.318ZM1231.24 149.331L1296.24 94.8314L1289.81 87.1686L1224.81 141.669L1231.24 149.331ZM1296.24 94.8309C1305.9 86.7244 1318.37 80.5123 1333.83 76.3261L1331.22 66.6739C1314.67 71.1543 1300.81 77.9422 1289.81 87.169L1296.24 94.8309ZM1333.83 76.3261C1349.3 72.1372 1367.67 70 1389.02 70V60C1367.04 60 1347.75 62.1961 1331.22 66.6739L1333.83 76.3261ZM1389.02 70H1511.02V60H1389.02V70ZM1511.02 70C1518.4 70 1522.66 71.7081 1524.99 74.0355L1532.06 66.9644C1527.05 61.9586 1519.65 60 1511.02 60V70ZM1524.99 74.0355C1527.32 76.363 1529.02 80.6228 1529.02 88H1539.02C1539.02 79.3771 1537.06 71.9703 1532.06 66.9644L1524.99 74.0355ZM1529.02 88V148.5H1539.02V88H1529.02ZM1529.02 148.5C1529.02 152.347 1528.43 155.278 1527.45 157.469L1536.59 161.531C1538.29 157.722 1539.02 153.32 1539.02 148.5H1529.02ZM1527.28 157.919C1526.56 160.085 1525.39 161.811 1523.77 163.204L1530.28 170.796C1533.32 168.189 1535.49 164.915 1536.77 161.081L1527.28 157.919ZM1523.83 163.154L1458.83 217.154L1465.22 224.846L1530.22 170.846L1523.83 163.154ZM1458.49 217.464C1457.96 217.997 1456.64 218.857 1453.94 219.757L1457.1 229.243C1460.4 228.143 1463.42 226.67 1465.56 224.536L1458.49 217.464ZM1453.77 219.818C1451.75 220.575 1449.36 221 1446.52 221V231C1450.36 231 1453.96 230.425 1457.28 229.182L1453.77 219.818ZM1446.52 221H1385.02V231H1446.52V221ZM1380.02 226V310.5H1390.02V226H1380.02ZM1380.02 310.5C1380.02 318.547 1382.57 325.384 1388.68 329.611L1394.37 321.389C1391.81 319.616 1390.02 316.453 1390.02 310.5H1380.02ZM1388.9 329.758C1394.38 333.128 1401.8 334.5 1410.52 334.5V324.5C1402.59 324.5 1397.33 323.205 1394.14 321.242L1388.9 329.758ZM1410.52 334.5H1511.02V324.5H1410.52V334.5ZM1511.02 334.5C1518.4 334.5 1522.66 336.208 1524.99 338.536L1532.06 331.464C1527.05 326.459 1519.65 324.5 1511.02 324.5V334.5ZM1524.99 338.536C1527.32 340.863 1529.02 345.123 1529.02 352.5H1539.02C1539.02 343.877 1537.06 336.47 1532.06 331.464L1524.99 338.536ZM1529.02 352.5V412H1539.02V352.5H1529.02ZM1529.02 412C1529.02 415.847 1528.43 418.778 1527.45 420.969L1536.59 425.031C1538.29 421.222 1539.02 416.82 1539.02 412H1529.02ZM1527.28 421.419C1526.56 423.585 1525.39 425.311 1523.77 426.704L1530.28 434.296C1533.32 431.689 1535.49 428.415 1536.77 424.581L1527.28 421.419ZM1523.83 426.654L1458.83 480.654L1465.22 488.346L1530.22 434.346L1523.83 426.654ZM1458.49 480.964C1457.96 481.497 1456.64 482.357 1453.94 483.257L1457.1 492.743C1460.4 491.643 1463.42 490.17 1465.56 488.036L1458.49 480.964ZM1453.77 483.318C1451.75 484.075 1449.36 484.5 1446.52 484.5V494.5C1450.36 494.5 1453.96 493.925 1457.28 492.682L1453.77 483.318ZM1511.02 435C1517.83 435 1523.99 433.605 1528.06 429.536L1520.99 422.464C1519.72 423.728 1516.88 425 1511.02 425V435ZM1528.06 429.536C1532.37 425.223 1534.02 419.012 1534.02 412H1524.02C1524.02 417.654 1522.67 420.777 1520.99 422.464L1528.06 429.536ZM1534.02 412V352.5H1524.02V412H1534.02ZM1534.02 352.5C1534.02 345.552 1532.4 339.31 1527.85 335.263L1521.2 342.737C1522.65 344.023 1524.02 346.781 1524.02 352.5H1534.02ZM1528.26 335.678C1524.21 331.125 1517.97 329.5 1511.02 329.5V339.5C1516.74 339.5 1519.5 340.875 1520.79 342.322L1528.26 335.678ZM1511.02 329.5H1410.52V339.5H1511.02V329.5ZM1410.52 329.5C1400.61 329.5 1394.22 327.71 1390.48 324.968L1384.57 333.032C1390.83 337.624 1399.77 339.5 1410.52 339.5V329.5ZM1390.65 325.096C1387.17 322.316 1385.02 317.81 1385.02 310.5H1375.02C1375.02 319.857 1377.87 327.684 1384.4 332.904L1390.65 325.096ZM1385.02 310.5V191.5H1375.02V310.5H1385.02ZM1385.02 191.5C1385.02 184.19 1387.17 179.684 1390.65 176.904L1384.4 169.096C1377.87 174.316 1375.02 182.143 1375.02 191.5H1385.02ZM1390.8 176.778C1394.5 173.571 1400.75 171.5 1410.52 171.5V161.5C1399.63 161.5 1390.55 163.762 1384.25 169.222L1390.8 176.778ZM1410.52 171.5H1511.02V161.5H1410.52V171.5ZM1511.02 171.5C1517.83 171.5 1523.99 170.105 1528.06 166.036L1520.99 158.964C1519.72 160.228 1516.88 161.5 1511.02 161.5V171.5ZM1528.06 166.036C1532.37 161.723 1534.02 155.512 1534.02 148.5H1524.02C1524.02 154.154 1522.67 157.277 1520.99 158.964L1528.06 166.036ZM1534.02 148.5V88H1524.02V148.5H1534.02ZM1534.02 88C1534.02 81.0523 1532.4 74.8104 1527.85 70.7629L1521.2 78.237C1522.65 79.5229 1524.02 82.2811 1524.02 88H1534.02ZM1528.26 71.1782C1524.21 66.6248 1517.97 65 1511.02 65V75C1516.74 75 1519.5 76.3752 1520.79 77.8218L1528.26 71.1782ZM1511.02 65H1389.02V75H1511.02V65ZM1389.02 65C1346.82 65 1314.44 73.5866 1292.82 91.664L1299.23 99.3359C1318.28 83.4134 1347.9 75 1389.02 75V65ZM1292.82 91.6589C1271.33 109.566 1261.02 136.873 1261.02 172.5H1271.02C1271.02 138.793 1280.71 114.767 1299.22 99.3411L1292.82 91.6589ZM1261.02 172.5V328H1271.02V172.5H1261.02ZM1261.02 328C1261.02 363.627 1271.33 390.933 1292.82 408.841L1299.22 401.159C1280.71 385.733 1271.02 361.707 1271.02 328H1261.02ZM1292.85 408.867C1314.47 426.587 1346.84 435 1389.02 435V425C1347.88 425 1318.24 416.746 1299.19 401.133L1292.85 408.867ZM1389.02 435H1511.02V425H1389.02V435ZM1478.52 380V385H1488.52V380H1478.52ZM1483.52 380H1400.02V390H1483.52V380ZM1400.02 380C1384.08 380 1371.03 378.764 1360.78 376.38C1350.48 373.985 1343.39 370.52 1338.94 366.352L1332.1 373.648C1338.33 379.48 1347.31 383.515 1358.52 386.12C1369.77 388.736 1383.63 390 1400.02 390V380ZM1339 366.407C1330.09 357.782 1325.02 342.931 1325.02 320.5H1315.02C1315.02 344.069 1320.29 362.218 1332.05 373.593L1339 366.407ZM1325.02 320.5V180.5H1315.02V320.5H1325.02ZM1325.02 180.5C1325.02 157.388 1330.26 142.256 1339.44 133.648L1332.6 126.352C1320.45 137.744 1315.02 156.278 1315.02 180.5H1325.02ZM1339.44 133.648C1343.9 129.474 1350.96 126.01 1361.16 123.618C1371.33 121.236 1384.25 120 1400.02 120V110C1383.8 110 1370.05 111.264 1358.88 113.882C1347.76 116.49 1338.82 120.526 1332.6 126.352L1339.44 133.648ZM1400.02 120H1483.52V110H1400.02V120ZM1478.52 115V120H1488.52V115H1478.52ZM1483.52 115H1400.02V125H1483.52V115ZM1400.02 115C1385.12 115 1372.42 116.182 1362 118.633C1351.62 121.076 1343.19 124.855 1337.17 130.289L1343.87 137.711C1348.19 133.811 1354.84 130.591 1364.29 128.367C1373.71 126.151 1385.59 125 1400.02 125V115ZM1337.24 130.23C1325.3 140.627 1320.02 157.914 1320.02 180.5H1330.02C1330.02 159.086 1335.08 145.373 1343.81 137.77L1337.24 130.23ZM1320.02 180.5V320.5H1330.02V180.5H1320.02ZM1320.02 320.5C1320.02 342.74 1325.13 359.821 1336.68 370.216L1343.37 362.784C1334.92 355.178 1330.02 341.593 1330.02 320.5H1320.02ZM1336.68 370.216C1342.56 375.514 1350.99 379.155 1361.43 381.503C1371.91 383.862 1384.81 385 1400.02 385V375C1385.24 375 1373.14 373.888 1363.62 371.747C1354.06 369.595 1347.48 366.486 1343.37 362.784L1336.68 370.216ZM1400.02 385H1483.52V375H1400.02V385ZM1689.79 385V390H1694.79V385H1689.79ZM1684.79 385H1679.79V390H1684.79V385ZM1684.79 115V110H1679.79V115H1684.79ZM1689.79 115H1694.79V110H1689.79V115ZM1689.79 248H1684.79V253H1689.79V248ZM1798.29 248V253H1801.58L1802.88 249.984L1798.29 248ZM1855.79 115V110H1852.51L1851.2 113.016L1855.79 115ZM1861.29 115L1865.88 116.984L1868.9 110H1861.29V115ZM1803.79 248L1799.2 246.016L1796.18 253H1803.79V248ZM1869.79 259.5L1872.84 255.532L1872.84 255.532L1869.79 259.5ZM1884.79 385V390H1889.79V385H1884.79ZM1879.79 385H1874.79V390H1879.79V385ZM1865.79 263L1868.7 258.931L1868.7 258.931L1865.79 263ZM1689.79 253V248H1684.79V253H1689.79ZM1739.29 426L1735.76 422.464L1735.76 422.464L1739.29 426ZM1743.79 297.5V292.5H1738.79V297.5H1743.79ZM1829.79 426L1826.06 429.322L1826.25 429.542L1826.47 429.737L1829.79 426ZM1934.29 426L1937.83 429.536L1937.83 429.536L1934.29 426ZM1921.79 223L1918.06 226.328L1918.11 226.381L1918.16 226.433L1921.79 223ZM1877.29 203L1872.71 200.995L1869.82 207.607L1877.03 207.993L1877.29 203ZM1928.29 86.5L1932.87 88.5051L1932.87 88.5041L1928.29 86.5ZM1928.79 74.5L1924.63 77.2735L1924.71 77.389L1924.79 77.5L1928.79 74.5ZM1824.79 74L1827.31 78.3189L1827.44 78.2434L1827.57 78.1602L1824.79 74ZM1815.29 86.5L1819.87 88.5216L1819.91 88.4179L1819.95 88.3122L1815.29 86.5ZM1763.79 203V208H1767.05L1768.37 205.022L1763.79 203ZM1743.79 203H1738.79V208H1743.79V203ZM1739.29 74.5L1735.56 77.8218L1735.75 78.0416L1735.97 78.237L1739.29 74.5ZM1634.29 74.5L1630.76 70.9645L1630.76 70.9645L1634.29 74.5ZM1634.29 426L1630.56 429.322L1630.75 429.542L1630.97 429.737L1634.29 426ZM1741.79 430.5L1744.99 434.346L1745.02 434.321L1745.05 434.296L1741.79 430.5ZM1676.79 484.5L1673.6 480.654L1673.42 480.801L1673.26 480.964L1676.79 484.5ZM1670.29 488L1668.71 483.257L1668.62 483.286L1668.54 483.318L1670.29 488ZM1566.29 484L1562.76 487.536L1566.29 484ZM1562.29 131.5L1557.72 129.469L1557.63 129.69L1557.55 129.919L1562.29 131.5ZM1567.79 124L1564.57 120.181L1564.55 120.192L1564.54 120.204L1567.79 124ZM1632.29 69.5L1629.17 65.5957L1629.12 65.6375L1629.07 65.6808L1632.29 69.5ZM1638.79 66.5L1640.01 71.3507L1640.19 71.3041L1640.37 71.2434L1638.79 66.5ZM1743.29 70.5L1746.83 66.9645L1746.83 66.9644L1743.29 70.5ZM1748.79 133.5H1743.79V148.5L1752.79 136.5L1748.79 133.5ZM1751.79 129.5L1755.79 132.5L1755.95 132.294L1756.08 132.072L1751.79 129.5ZM1755.29 125.5L1758.29 129.5L1758.41 129.413L1758.52 129.319L1755.29 125.5ZM1819.79 71L1823.02 74.8191L1823.03 74.8078L1823.05 74.7963L1819.79 71ZM1828.29 66.5L1826.98 61.6761L1826.92 61.6927L1826.86 61.7108L1828.29 66.5ZM1933.79 71.5L1929.53 74.1205L1929.58 74.1979L1929.63 74.2735L1933.79 71.5ZM1932.79 88.5L1928.24 86.431L1928.23 86.4655L1928.21 86.5003L1932.79 88.5ZM1884.79 198.5L1880.21 196.5L1877.55 202.603L1884.15 203.458L1884.79 198.5ZM1941.79 423L1937.22 420.969L1937.13 421.19L1937.05 421.419L1941.79 423ZM1936.79 430.5L1939.99 434.346L1940.02 434.321L1940.05 434.296L1936.79 430.5ZM1871.79 484.5L1868.6 480.654L1868.42 480.801L1868.26 480.964L1871.79 484.5ZM1865.29 488L1863.71 483.257L1863.62 483.286L1863.54 483.318L1865.29 488ZM1754.29 361L1750.13 363.773L1750.13 363.773L1754.29 361ZM1748.79 357.5L1749.5 352.55L1743.79 351.735V357.5H1748.79ZM1746.79 423L1742.22 420.969L1742.13 421.19L1742.05 421.419L1746.79 423ZM1689.79 380H1684.79V390H1689.79V380ZM1689.79 385V115H1679.79V385H1689.79ZM1684.79 120H1689.79V110H1684.79V120ZM1684.79 115V248H1694.79V115H1684.79ZM1689.79 253H1798.29V243H1689.79V253ZM1802.88 249.984L1860.38 116.984L1851.2 113.016L1793.7 246.016L1802.88 249.984ZM1855.79 120H1861.29V110H1855.79V120ZM1856.7 113.016L1799.2 246.016L1808.38 249.984L1865.88 116.984L1856.7 113.016ZM1803.79 253H1824.29V243H1803.79V253ZM1824.29 253C1844.15 253 1858.02 256.771 1866.75 263.468L1872.84 255.532C1861.57 246.896 1845.1 243 1824.29 243V253ZM1866.75 263.468C1875.09 269.864 1879.79 280.598 1879.79 297H1889.79C1889.79 278.735 1884.49 264.469 1872.84 255.532L1866.75 263.468ZM1879.79 297V385H1889.79V297H1879.79ZM1884.79 380H1879.79V390H1884.79V380ZM1884.79 385V297H1874.79V385H1884.79ZM1884.79 297C1884.79 280.071 1879.82 266.875 1868.7 258.931L1862.89 267.069C1870.43 272.459 1874.79 281.929 1874.79 297H1884.79ZM1868.7 258.931C1858.15 251.394 1843.09 248 1824.29 248V258C1842.16 258 1854.77 261.273 1862.89 267.069L1868.7 258.931ZM1824.29 248H1689.79V258H1824.29V248ZM1684.79 253V385H1694.79V253H1684.79ZM1725.79 435C1732.6 435 1738.76 433.605 1742.83 429.536L1735.76 422.464C1734.49 423.728 1731.65 425 1725.79 425V435ZM1742.83 429.536C1747.14 425.223 1748.79 419.012 1748.79 412H1738.79C1738.79 417.654 1737.44 420.777 1735.76 422.464L1742.83 429.536ZM1748.79 412V297.5H1738.79V412H1748.79ZM1743.79 302.5H1809.79V292.5H1743.79V302.5ZM1809.79 302.5C1814.19 302.5 1816.62 303.71 1818.06 305.322L1825.53 298.678C1821.63 294.29 1816.06 292.5 1809.79 292.5V302.5ZM1818.06 305.322C1819.67 307.141 1820.79 309.982 1820.79 314.5H1830.79C1830.79 308.351 1829.25 302.859 1825.53 298.678L1818.06 305.322ZM1820.79 314.5V412H1830.79V314.5H1820.79ZM1820.79 412C1820.79 418.884 1822.22 425.005 1826.06 429.322L1833.53 422.678C1832.03 420.995 1830.79 417.782 1830.79 412H1820.79ZM1826.47 429.737C1830.79 433.575 1836.91 435 1843.79 435V425C1838.01 425 1834.8 423.759 1833.11 422.263L1826.47 429.737ZM1843.79 435H1920.79V425H1843.79V435ZM1920.79 435C1927.6 435 1933.76 433.605 1937.83 429.536L1930.76 422.464C1929.49 423.728 1926.65 425 1920.79 425V435ZM1937.83 429.536C1942.14 425.223 1943.79 419.012 1943.79 412H1933.79C1933.79 417.654 1932.44 420.777 1930.76 422.464L1937.83 429.536ZM1943.79 412V271H1933.79V412H1943.79ZM1943.79 271C1943.79 250.009 1937.82 232.684 1925.43 219.567L1918.16 226.433C1928.44 237.316 1933.79 251.991 1933.79 271H1943.79ZM1925.52 219.672C1913.52 206.211 1897.37 199.068 1877.56 198.007L1877.03 207.993C1894.55 208.932 1908.07 215.123 1918.06 226.328L1925.52 219.672ZM1881.87 205.005L1932.87 88.5051L1923.71 84.4949L1872.71 200.995L1881.87 205.005ZM1932.87 88.5041C1935.38 82.7762 1936.5 76.4441 1932.79 71.5L1924.79 77.5C1925.08 77.8892 1925.87 79.5571 1923.71 84.4959L1932.87 88.5041ZM1932.95 71.7265C1929.59 66.6746 1923.64 65 1917.29 65V75C1922.28 75 1924 76.3254 1924.63 77.2735L1932.95 71.7265ZM1917.29 65H1840.29V75H1917.29V65ZM1840.29 65C1833.28 65 1827.06 66.4764 1822.02 69.8397L1827.57 78.1602C1830.52 76.1903 1834.64 75 1840.29 75V65ZM1822.27 69.6811C1816.98 72.7699 1813.22 78.0393 1810.63 84.6877L1819.95 88.3122C1822.03 82.9607 1824.61 79.8967 1827.31 78.3189L1822.27 69.6811ZM1810.72 84.4784L1759.22 200.978L1768.37 205.022L1819.87 88.5216L1810.72 84.4784ZM1763.79 198H1743.79V208H1763.79V198ZM1748.79 203V88H1738.79V203H1748.79ZM1748.79 88C1748.79 81.0523 1747.17 74.8104 1742.61 70.7629L1735.97 78.237C1737.42 79.5229 1738.79 82.2811 1738.79 88H1748.79ZM1743.03 71.1782C1738.98 66.6248 1732.74 65 1725.79 65V75C1731.51 75 1734.27 76.3752 1735.56 77.8218L1743.03 71.1782ZM1725.79 65H1648.29V75H1725.79V65ZM1648.29 65C1641.28 65 1635.07 66.6514 1630.76 70.9645L1637.83 78.0355C1639.52 76.3485 1642.64 75 1648.29 75V65ZM1630.76 70.9645C1626.69 75.0344 1625.29 81.1896 1625.29 88H1635.29C1635.29 82.1437 1636.57 79.2989 1637.83 78.0355L1630.76 70.9645ZM1625.29 88V412H1635.29V88H1625.29ZM1625.29 412C1625.29 418.884 1626.72 425.005 1630.56 429.322L1638.03 422.678C1636.53 420.995 1635.29 417.782 1635.29 412H1625.29ZM1630.97 429.737C1635.29 433.575 1641.41 435 1648.29 435V425C1642.51 425 1639.3 423.759 1637.61 422.263L1630.97 429.737ZM1648.29 435H1725.79V425H1648.29V435ZM1738.6 426.654L1673.6 480.654L1679.99 488.346L1744.99 434.346L1738.6 426.654ZM1673.26 480.964C1672.73 481.497 1671.41 482.357 1668.71 483.257L1671.87 492.743C1675.17 491.643 1678.19 490.17 1680.33 488.036L1673.26 480.964ZM1668.54 483.318C1666.52 484.075 1664.13 484.5 1661.29 484.5V494.5C1665.13 494.5 1668.73 493.925 1672.05 492.682L1668.54 483.318ZM1661.29 484.5H1583.79V494.5H1661.29V484.5ZM1583.79 484.5C1576.42 484.5 1572.16 482.792 1569.83 480.464L1562.76 487.536C1567.76 492.541 1575.17 494.5 1583.79 494.5V484.5ZM1569.83 480.464C1567.5 478.137 1565.79 473.877 1565.79 466.5H1555.79C1555.79 475.123 1557.75 482.53 1562.76 487.536L1569.83 480.464ZM1565.79 466.5V142.5H1555.79V466.5H1565.79ZM1565.79 142.5C1565.79 138.52 1566.26 135.422 1567.04 133.081L1557.55 129.919C1556.33 133.578 1555.79 137.814 1555.79 142.5H1565.79ZM1566.86 133.531C1567.91 131.162 1569.32 129.28 1571.05 127.796L1564.54 120.204C1561.6 122.72 1559.34 125.838 1557.72 129.469L1566.86 133.531ZM1571.02 127.819L1635.52 73.3192L1629.07 65.6808L1564.57 120.181L1571.02 127.819ZM1635.42 73.4043C1636.38 72.6298 1637.84 71.8912 1640.01 71.3507L1637.58 61.6493C1634.41 62.4421 1631.53 63.7035 1629.17 65.5957L1635.42 73.4043ZM1640.37 71.2434C1642.84 70.4224 1645.47 70 1648.29 70V60C1644.45 60 1640.75 60.5776 1637.21 61.7565L1640.37 71.2434ZM1648.29 70H1725.79V60H1648.29V70ZM1725.79 70C1733.17 70 1737.43 71.7081 1739.76 74.0355L1746.83 66.9644C1741.82 61.9586 1734.42 60 1725.79 60V70ZM1739.76 74.0355C1742.08 76.363 1743.79 80.6228 1743.79 88H1753.79C1753.79 79.3771 1751.83 71.9703 1746.83 66.9645L1739.76 74.0355ZM1743.79 88V133.5H1753.79V88H1743.79ZM1752.79 136.5C1753.79 135.167 1754.79 133.833 1755.79 132.5L1747.79 126.5C1746.79 127.833 1745.79 129.167 1744.79 130.5L1752.79 136.5ZM1756.08 132.072C1756.8 130.87 1757.56 130.053 1758.29 129.5L1752.29 121.5C1750.36 122.947 1748.78 124.797 1747.51 126.928L1756.08 132.072ZM1758.52 129.319L1823.02 74.8191L1816.57 67.1808L1752.07 121.681L1758.52 129.319ZM1823.05 74.7963C1824.78 73.3069 1826.98 72.1151 1829.73 71.2891L1826.86 61.7108C1822.94 62.8848 1819.47 64.6931 1816.54 67.2037L1823.05 74.7963ZM1829.61 71.3238C1832.79 70.4558 1836.34 70 1840.29 70V60C1835.58 60 1831.13 60.5442 1826.98 61.6761L1829.61 71.3238ZM1840.29 70H1917.29V60H1840.29V70ZM1917.29 70C1925.04 70 1928.25 72.0319 1929.53 74.1205L1938.05 68.8795C1934 62.3014 1926.22 60 1917.29 60V70ZM1929.63 74.2735C1930.83 76.0642 1931.35 79.5846 1928.24 86.431L1937.34 90.569C1940.9 82.7487 1942.09 74.9358 1937.95 68.7265L1929.63 74.2735ZM1928.21 86.5003L1880.21 196.5L1889.38 200.5L1937.38 90.4997L1928.21 86.5003ZM1884.15 203.458C1901 205.642 1914.14 212.738 1923.93 224.672L1931.66 218.328C1920.12 204.262 1904.59 196.024 1885.44 193.541L1884.15 203.458ZM1923.93 224.672C1933.73 236.615 1938.79 251.928 1938.79 271H1948.79C1948.79 250.072 1943.19 232.385 1931.66 218.328L1923.93 224.672ZM1938.79 271V412H1948.79V271H1938.79ZM1938.79 412C1938.79 415.847 1938.2 418.778 1937.22 420.969L1946.36 425.031C1948.05 421.222 1948.79 416.82 1948.79 412H1938.79ZM1937.05 421.419C1936.33 423.585 1935.16 425.311 1933.54 426.704L1940.05 434.296C1943.09 431.689 1945.26 428.415 1946.54 424.581L1937.05 421.419ZM1933.6 426.654L1868.6 480.654L1874.99 488.346L1939.99 434.346L1933.6 426.654ZM1868.26 480.964C1867.73 481.497 1866.41 482.357 1863.71 483.257L1866.87 492.743C1870.17 491.643 1873.19 490.17 1875.33 488.036L1868.26 480.964ZM1863.54 483.318C1861.52 484.075 1859.13 484.5 1856.29 484.5V494.5C1860.13 494.5 1863.73 493.925 1867.05 492.682L1863.54 483.318ZM1856.29 484.5H1779.29V494.5H1856.29V484.5ZM1779.29 484.5C1771.92 484.5 1767.66 482.792 1765.33 480.464L1758.26 487.536C1763.26 492.541 1770.67 494.5 1779.29 494.5V484.5ZM1765.33 480.464C1763 478.137 1761.29 473.877 1761.29 466.5H1751.29C1751.29 475.123 1753.25 482.53 1758.26 487.536L1765.33 480.464ZM1761.29 466.5V369H1751.29V466.5H1761.29ZM1761.29 369C1761.29 365.049 1760.51 361.309 1758.45 358.226L1750.13 363.773C1750.74 364.691 1751.29 366.285 1751.29 369H1761.29ZM1758.45 358.227C1756.35 355.07 1753.27 353.089 1749.5 352.55L1748.09 362.45C1748.98 362.577 1749.57 362.93 1750.13 363.773L1758.45 358.227ZM1743.79 357.5V412H1753.79V357.5H1743.79ZM1743.79 412C1743.79 415.847 1743.2 418.778 1742.22 420.969L1751.36 425.031C1753.05 421.222 1753.79 416.82 1753.79 412H1743.79ZM1742.05 421.419C1741.33 423.585 1740.16 425.311 1738.54 426.704L1745.05 434.296C1748.09 431.689 1750.26 428.415 1751.54 424.581L1742.05 421.419Z" fill="#423636" mask="url(#path-1-outside-1_90650_1293)"/>
</svg>
